<svg xmlns="http://www.w3.org/2000/svg" width="84" height="54">
    <path fill="#F9D254" fill-rule="evenodd" d="M7.344 6.781h11.531a3 3 0 0 1 3 3v9.031a3 3 0 0 1-3 3.001H7.344a3 3 0 0 1-3-3.001V9.781a3 3 0 0 1 3-3z"/>
    <path fill="#E8C34D" fill-rule="evenodd" d="M8.52 21.81a1.76 1.76 0 0 1-1.751-1.767v-9.272V4.81L2.393 9.667l.22 12.585 5.032 3.753.875-4.195z"/>
    <path fill="#F1C127" fill-rule="evenodd" d="M5.281 4.594h15.656a3.094 3.094 0 1 1 0 6.187H5.281a3.093 3.093 0 0 1 0-6.187z"/>
    <path fill="#DEAF1A" fill-rule="evenodd" d="M6.332 10.771c-.967 0-1.75-.791-1.75-1.766v-2.65c0-.975.783-1.766 1.75-1.766L5.019.394.205 5.252l.219 5.96 5.032 3.754.876-4.195z"/>
    <path fill="#4B4E54" fill-rule="evenodd" d="M14.641 49.844c-4.22 0-7.641-3.456-7.641-7.719s3.421-7.719 7.641-7.719c4.219 0 7.64 3.456 7.64 7.719s-3.421 7.719-7.64 7.719zm.015-11.594c-2.123 0-3.843 1.735-3.843 3.875 0 2.14 1.72 3.875 3.843 3.875s3.844-1.735 3.844-3.875c0-2.14-1.721-3.875-3.844-3.875z"/>
    <path fill="#5F6168" fill-rule="evenodd" d="M14.656 53.594c-6.299 0-11.406-5.135-11.406-11.469s5.107-11.469 11.406-11.469c6.3 0 11.407 5.135 11.407 11.469s-5.107 11.469-11.407 11.469zm-.015-17.219c-3.133 0-5.672 2.574-5.672 5.75s2.539 5.75 5.672 5.75c3.132 0 5.672-2.574 5.672-5.75s-2.54-5.75-5.672-5.75z"/>
    <path fill="#4B4E54" fill-rule="evenodd" d="M71.984 49.844c-4.237 0-7.672-3.456-7.672-7.719s3.435-7.719 7.672-7.719 7.672 3.456 7.672 7.719-3.435 7.719-7.672 7.719zm-.015-11.594c-2.123 0-3.844 1.735-3.844 3.875 0 2.14 1.721 3.875 3.844 3.875 2.123 0 3.844-1.735 3.844-3.875 0-2.14-1.721-3.875-3.844-3.875z"/>
    <path fill="#5F6168" fill-rule="evenodd" d="M71.984 53.594c-6.29 0-11.39-5.135-11.39-11.469s5.1-11.469 11.39-11.469c6.291 0 11.391 5.135 11.391 11.469s-5.1 11.469-11.391 11.469zm-.015-17.219c-3.141 0-5.688 2.574-5.688 5.75s2.547 5.75 5.688 5.75c3.141 0 5.687-2.574 5.687-5.75s-2.546-5.75-5.687-5.75z"/>
    <path fill="#EEE" fill-rule="evenodd" d="M63.766 13.187c2.597 0 4.703 2.134 4.703 4.766s-2.106 4.766-4.703 4.766c-2.598 0-4.703-2.134-4.703-4.766s2.105-4.766 4.703-4.766z"/>
    <path fill="#D3D5DC" fill-rule="evenodd" d="M64.209 13.198h-4.814c-.666 0-1.204.544-1.204 1.215v7.286c0 .671.539 1.214 1.204 1.214h4.814c.665 0 1.204-.543 1.204-1.214v-7.286a1.21 1.21 0 0 0-1.204-1.215z"/>
    <path fill="#48CE8E" fill-rule="evenodd" d="M37.842 24.238c0 1.104.11 6.183.438 7.065.329.883 1.641 4.637 2.626 6.403.984 1.766.984 2.208 1.97 2.208.984 0 4.813.221 7.002.221 2.188 0 2.406-.221 2.188-.883-.219-.663-.548-1.546-.657-1.987-.32-1.294.109-.994.657-1.105.547-.11 1.75-.22 1.75-.22s2.735-10.929 3.283-12.364c.547-1.435.655-5.078.218-6.182-.437-1.104-4.932-9.781-5.689-10.818-1.414-1.936.65-6.084 3.063-1.324 2.491 4.911 10.723 21.415 10.723 21.415s2.844-1.546 5.689-1.546c4.595 0 9.19 1.988 12.692 5.52-.285.353-2.407 2.65-2.407 2.65-3.939-3.754-10.622-6.637-15.974-2.429 0 0 5.033 7.506 6.784 10.156 1.75 2.649-1.533 3.311-2.846 1.766-1.312-1.546-5.907-7.727-5.907-7.727s-4.596 8.168-5.253 9.272c-.656 1.104-1.969 1.546-3.938 1.546h-9.629c-1.749 0-2.625-.442-5.251-1.987-2.626-1.546-2.626-1.325-5.47-1.325-2.846 0-15.318.662-17.506.662-.876 0-1.97-.662-1.532-1.545.437-.883.656-1.545 3.063-1.987 2.408-.441 10.285-2.428 10.285-2.428s1.095-2.208.438-3.974c-.657-1.767-3.755-5.741-22.32-5.741-2.49 0-2.845-3.974-.219-3.974 14.662 0 26.869-.22 30.854-.22.656 0 .875.441.875.882z"/>
    <path fill="#3AA870" fill-rule="evenodd" d="M38.061 43.005L26.682 36.16s-2.118-.194-1.969.221c.438 1.214 12.801 6.182 13.129 7.065.329.883.219-.441.219-.441z"/>
    <path fill="#3AA870" fill-rule="evenodd" d="M2.407 30.668c1.05.311 6.812 1.672 7.744 1.603.932-.07 12.243 5.951 14.2 5.495 2.246-.523 3.683-1.231 3.683-1.231s3.507-6.739-7.916-8.985c-8.592-1.689-13.586-.405-14.328-2.709-2.5-7.759-6.349 4.949-3.383 5.827zM35.217 22.693c0 1.104.328 7.728.656 8.61.329.883 2.954 4.637 3.939 6.403.985 1.766.985 2.208 1.969 2.208.985 0 2.844-.221 2.844-.221l-.437-7.065-2.844-10.156s-6.127-.22-6.127.221zM35.873 42.563c-2.845 0-17.287.662-19.475.662-.876 0-1.97-.662-1.532-1.545.437-.883.656-1.545 3.063-1.987 2.408-.441 9.191-2.428 9.191-2.428h1.75s9.848 5.298 7.003 5.298z"/>
    <path fill="#5F6168" fill-rule="evenodd" d="M34.653 16.952h-6.377c-2.931 0-5.315 2.476-5.315 5.519 0 .61.476 1.104 1.063 1.104h12.755c.587 0 1.063-.494 1.063-1.104v-2.208c0-1.826-1.431-3.311-3.189-3.311z"/>
    <path fill="#4B4E54" fill-rule="evenodd" d="M25.306 22.288c0-3.551 2.655-5.337 6.189-5.337h-2.564c-3.533 0-6.188 1.785-6.188 5.337 0 .711.573 1.288 1.282 1.288h2.562a1.285 1.285 0 0 1-1.281-1.288z"/>
    <path fill="#5F6168" fill-rule="evenodd" d="M44.86 2.344h7.405c.975 0 1.766.791 1.766 1.766v.03c0 .975-.791 1.766-1.766 1.766H44.86a1.766 1.766 0 0 1-1.766-1.766v-.03c0-.975.791-1.766 1.766-1.766z"/>
</svg>
