<?xml version="1.0" encoding="utf-8"?>
<!-- Generator: Adobe Illustrator 21.0.0, SVG Export Plug-In . SVG Version: 6.00 Build 0)  -->
<svg version="1.1" id="Capa_1" xmlns="http://www.w3.org/2000/svg" xmlns:xlink="http://www.w3.org/1999/xlink" x="0px" y="0px"
	 viewBox="0 0 511.8 511.8" style="enable-background:new 0 0 511.8 511.8;" xml:space="preserve">
<style type="text/css">
	.st0{opacity:0.5;}
	.st1{fill:#9F9F9F;}
	.st2{fill:#616161;}
	.st3{fill:#4E4E4E;}
	.st4{fill:#FFFFFF;}
	.st5{display:none;fill:#DEDEDE;}
	.st6{fill:#818181;}
	.st7{fill:#707070;}
	.st8{fill:#DEDEDE;}
	.st9{fill:#EEEEEE;}
	.st10{fill:none;stroke:#818181;stroke-miterlimit:10;}
	.st11{fill:#353535;}
	.st12{display:none;}
	.st13{display:inline;}
	.st14{display:inline;opacity:0.57;clip-path:url(#XMLID_2_);}
	.st15{fill:#7F7F7F;}
	.st16{display:inline;opacity:0.56;clip-path:url(#XMLID_3_);}
</style>
<g id="XMLID_145_" class="st0">
	<path id="XMLID_662_" class="st1" d="M502.2,272.4c0,0-0.1,2.5-0.6,6c-1,8.3-3.5,22.4-9.2,23.7c0,0-11.7,2.5-13.9,1.2
		c0,0,0.9-39.4-31.4-49.5c-19.1-6-56.3-6.2-61.7,51.1c0,0-218.4-5.3-233.1-2.9c0,0-5.7-1-4.5-10c0,0,0.1-1.9-0.1-5
		c-0.7-12-5.9-41.6-37.8-48.4c0,0-45.7-10.5-55.4,40.9c-0.5,2.4-0.8,5-1.1,7.6c-0.3,2.7-0.5,5.5-0.6,8.4c0,0-17.5,4.1-24.8-1.8
		c0,0-18.1,0.1-18.5-0.9l-0.7-5.1c0,0,0.2-0.2,0.5-0.6c1.6-2,6.5-8.4,2.3-8.9c0,0-3.4-15-1.1-31c2.4-17.5,11.5-36.2,38.7-38.3
		c0,0,65.6-13.3,83.5-22.5c32.7-16.7,88-51.7,169.1-47.1c35,2,92.9,1.2,139.7,13.8c0,0,2.2,2.8,3.2,6.7c0,0,32.4,34.3,34.3,36
		c1.6,1.4,3.1,2.9,4.5,4.3c2.2,2.2,4.3,4.5,6,6.8c5.4,7.5,7.5,16.2,1.8,29.3C491.1,236.3,505.8,260.6,502.2,272.4z"/>
	<g id="XMLID_141_">
		<g id="XMLID_22_">
			<g id="XMLID_585_">
				
					<ellipse id="XMLID_610_" transform="matrix(4.645317e-02 -0.9989 0.9989 4.645317e-02 -187.6902 373.9519)" class="st2" cx="102" cy="285.3" rx="39.6" ry="40.9"/>
				
					<ellipse id="XMLID_607_" transform="matrix(4.645275e-02 -0.9989 0.9989 4.645275e-02 -188.8585 374.2836)" class="st3" cx="101.6" cy="286.1" rx="24.3" ry="24.6"/>
				
					<ellipse id="XMLID_604_" transform="matrix(4.645256e-02 -0.9989 0.9989 4.645256e-02 -187.8591 374.0443)" class="st4" cx="102" cy="285.4" rx="17" ry="16.9"/>
				<path id="XMLID_603_" class="st5" d="M125.9,291.1l0.8-7.7l-15.9-0.8c-0.1-0.3-0.2-0.6-0.3-0.9l12.5-9.3l-4.8-6.1l-11.8,10.5
					c-0.3-0.2-0.5-0.3-0.8-0.4l2.5-15.7l-7.7-0.8l-1.1,15.7c-0.4,0.1-0.8,0.2-1.2,0.3l-9.7-12.6l-5.9,5.1l10.4,11.2
					c-0.5,0.7-0.9,1.4-1.2,2.2l-15.7-1.4l-0.2,7.8l15.7,0c0.1,0.2,0.2,0.5,0.3,0.7l-12.4,10.3l5.3,5.7l11.3-11.2
					c0.4,0.2,0.9,0.5,1.3,0.7l-3.3,15.6l7.7,1.4l2.1-16.4c0.3-0.1,0.6-0.2,0.9-0.3l-0.2,0.1l9.2,13.3l6.3-4.6l-10.3-12.4
					c0.4-0.6,0.8-1.3,1.1-1.9L125.9,291.1z"/>
			</g>
			<g id="XMLID_373_">
				
					<ellipse id="XMLID_398_" transform="matrix(4.645317e-02 -0.9989 0.9989 4.645317e-02 115.9616 715.081)" class="st2" cx="432.5" cy="296.8" rx="39.6" ry="40.9"/>
				
					<ellipse id="XMLID_395_" transform="matrix(4.645526e-02 -0.9989 0.9989 4.645526e-02 114.7924 715.4119)" class="st3" cx="432.1" cy="297.6" rx="23.7" ry="24"/>
				
					<ellipse id="XMLID_392_" transform="matrix(4.644908e-02 -0.9989 0.9989 4.644908e-02 115.7712 715.1799)" class="st4" cx="432.5" cy="297" rx="16.7" ry="16.5"/>
				<path id="XMLID_391_" class="st5" d="M456.4,302.6l0.8-7.7l-15.9-0.8c-0.1-0.3-0.2-0.6-0.3-0.9l12.5-9.3l-4.8-6.1l-11.8,10.5
					c-0.3-0.2-0.5-0.3-0.8-0.4l2.5-15.7l-7.7-0.8l-1.1,15.7c-0.4,0.1-0.8,0.2-1.2,0.3l-9.7-12.6l-5.9,5.1l10.4,11.2
					c-0.5,0.7-0.9,1.4-1.2,2.2l-15.7-1.4l-0.2,7.8l15.7,0c0.1,0.2,0.2,0.5,0.3,0.7l-12.4,10.3l5.3,5.7l11.3-11.2
					c0.4,0.2,0.9,0.5,1.3,0.7l-3.3,15.6l7.7,1.4l2.1-16.4c0.3-0.1,0.6-0.2,0.9-0.3l-0.2,0.1l9.2,13.3l6.3-4.6l-10.3-12.4
					c0.4-0.6,0.8-1.3,1.1-1.9L456.4,302.6z"/>
			</g>
		</g>
	</g>
	<g id="XMLID_143_">
		
			<ellipse id="XMLID_653_" transform="matrix(4.644999e-02 -0.9989 0.9989 4.644999e-02 48.8812 482.1095)" class="st6" cx="277" cy="215.5" rx="6" ry="15.4"/>
		
			<ellipse id="XMLID_650_" transform="matrix(4.645504e-02 -0.9989 0.9989 4.645504e-02 170.923 598.6962)" class="st6" cx="399.1" cy="209.8" rx="6" ry="15.4"/>
		<path id="XMLID_635_" class="st7" d="M491.1,236.3c-8.2,0.6-33.8-24.2-33.8-24.2c-9.7-12.8,31.1-5.2,31.1-5.2l1,0.2
			C494.8,214.5,496.8,223.2,491.1,236.3z"/>
		<path id="XMLID_626_" class="st8" d="M202.8,162.7c12-4.2,62.7-20.8,96.1-15.6c1.1,0.2,1.8,1.2,1.5,2.3c-1.8,7.5-8.3,34.6-12,46.1
			c-0.7,2.1-2.5,3.5-4.7,3.6l-85.9,4.6l-5-13.6l6.5-24.1C199.9,164.6,201.2,163.3,202.8,162.7z"/>
		<path id="XMLID_13_" class="st8" d="M202.8,162.7c12-4.2,62.7-20.8,96.1-15.6c1.1,0.2,1.8,1.2,1.5,2.3c-1.8,7.5-8.3,34.6-12,46.1
			c-0.7,2.1-2.5,3.5-4.7,3.6l-85.9,4.6l-5-13.6l6.5-24.1C199.9,164.6,201.2,163.3,202.8,162.7z"/>
		<path id="XMLID_196_" class="st8" d="M202.8,162.7c12-4.2,62.7-20.8,96.1-15.6c1.1,0.2,1.8,1.2,1.5,2.3c-1.8,7.5-8.3,34.6-12,46.1
			c-0.7,2.1-2.5,3.5-4.7,3.6l-85.9,4.6l-5-13.6l6.5-24.1C199.9,164.6,201.2,163.3,202.8,162.7z"/>
		<path id="XMLID_199_" class="st8" d="M202.8,162.7c12-4.2,62.7-20.8,96.1-15.6c1.1,0.2,1.8,1.2,1.5,2.3c-1.8,7.5-8.3,34.6-12,46.1
			c-0.7,2.1-2.5,3.5-4.7,3.6l-85.9,4.6l-5-13.6l6.5-24.1C199.9,164.6,201.2,163.3,202.8,162.7z"/>
		<path id="XMLID_620_" class="st6" d="M53.3,287.1c-0.3,2.7-0.5,5.5-0.6,8.4c0,0-17.5,4.1-24.8-1.8c0,0-18.1,0.1-18.5-0.9l-0.7-5.1
			c0,0,37.6,0.6,43.8-0.6C52.8,287.1,53.1,287.1,53.3,287.1z"/>
		<path id="XMLID_614_" class="st6" d="M26.7,283c-2.2-7.4,1.6-34.2,1.6-34.2S36.1,282.7,26.7,283z"/>
		<path id="XMLID_565_" class="st6" d="M478.1,195.1c-0.5-0.2-0.9-0.4-1.4-0.6c-24.7-11.8-31.9-33.9-32.1-34.6
			C445.4,160.7,473,189.9,478.1,195.1z"/>
		<path id="XMLID_407_" class="st1" d="M501.6,278.4c-1,8.3-3.5,22.4-9.2,23.7c0,0-11.7,2.5-13.9,1.2c0,0,0.9-39.4-31.4-49.5
			c-19.1-6-56.3-6.2-61.7,51.1c0,0-218.4-5.3-233.1-2.9c0,0-5.7-1-4.5-10c0,0,0.1-2.6-0.1-5.7c0,0,196.7-19.3,230.4-3.6
			c0,0,19.1-46.7,66.4-35.8c0,0,18.7,3.2,31,20.7c0,0,16.3,14.6,25.7,10.8C501.3,278.4,501.4,278.4,501.6,278.4z"/>
		<path id="XMLID_310_" class="st9" d="M70,217.5l-0.5,0.5c-0.2,0.2-0.4,0.4-0.6,0.6c-21.3,20.9-52.5,18.8-52.5,18.8
			s-0.3-10.1,9-17.6c2.7-2.2,6.1-4.1,10.5-5.5c0.8-0.3,1.7-0.5,2.5-0.7c0,0,12-1.9,26.6-5.3l0.2,0.1C65.3,208.3,80.5,212.4,70,217.5
			z"/>
		<path id="XMLID_401_" class="st6" d="M378,282.7c-6,14.7-16.8,12.4-16.8,12.4l-66.6-1.7l-121.6-3.2c-2.5,0.5-4.5,0.6-6.3,0.5
			l-6.6-5.4c0,0,174.4-18.6,216.9-2.9C377.3,282.5,377.6,282.6,378,282.7z"/>
		<path id="XMLID_656_" class="st10" d="M404.1,250.9c-4.9,2.4-9.9,7.6-14.2,13.1c-6.4,8.1-11.1,16.6-11.1,16.6
			c-0.3,0.8-0.5,1.5-0.8,2.2c-6,14.7-16.8,12.4-16.8,12.4l-66.6-1.7l-121.6-3.2c-2.5,0.5-4.5,0.6-6.3,0.5
			c-10.6-0.8-8.6-11.6-8.6-11.6c-4.8-11.4-6.3-24.5-6.4-36.4c-0.1-19.2,3.6-35.1,3.6-35.1c15.1-2.7,81.9-5.8,145.3-8.1
			c64.3-2.4,125.1-4,125.1-4C432.3,232.1,404.1,250.9,404.1,250.9z"/>
		<path id="XMLID_404_" class="st6" d="M300,199.1c0,0-12.4,77.1-5.8,93.3"/>
	</g>
	<g id="XMLID_137_">
		<path id="XMLID_644_" class="st3" d="M425.5,195.6c0,0.1,0,0.3-0.1,0.5c-34.7,0.3-79.1,1.9-124.4,3.9
			c-51.8,2.4-104.7,5.4-145.8,7.8l0-0.1c0,0-0.8-27.6,9-32.2c0,0,67.2-38.1,149.4-32.6c27,1.8,103.9,4.4,106.3,19.9
			C419.7,162.8,425.7,189.8,425.5,195.6z"/>
		<path id="XMLID_629_" class="st2" d="M323.4,151.5c-2.2,11.1-8.7,44.7-8.6,47l81.8-1.8c0,0,16.3-20.8,12.8-35.2
			c-0.4-1.8-54.1-12.7-81.7-13.4C325.6,148,323.8,149.5,323.4,151.5z"/>
		<path id="XMLID_372_" class="st11" d="M177.4,183.3c0,0,6.4,14.1,0.1,20c0,0-18.2,2.7-18.4-11.2
			C159.2,192.1,160.5,179.8,177.4,183.3z"/>
		<g id="XMLID_219_" class="st12">
			<defs>
				<path id="XMLID_215_" d="M323.4,151.5c-2.2,11.1-8.7,44.7-8.6,47l81.8-1.8c0,0,16.3-20.8,12.8-35.2
					c-0.4-1.8-54.1-12.7-81.7-13.4C325.6,148,323.8,149.5,323.4,151.5z"/>
			</defs>
			<clipPath id="XMLID_2_" class="st13">
				<use xlink:href="#XMLID_215_"  style="overflow:visible;"/>
			</clipPath>
			<g id="XMLID_18_" class="st14">
				
					<rect id="XMLID_23_" x="350.4" y="128.7" transform="matrix(0.7458 0.6662 -0.6662 0.7458 204.1127 -192.5467)" class="st15" width="7.9" height="85"/>
				
					<rect id="XMLID_20_" x="365" y="136.9" transform="matrix(0.7458 0.6662 -0.6662 0.7458 214.5448 -203.4523)" class="st15" width="17.7" height="85"/>
			</g>
		</g>
		<path id="XMLID_205_" class="st2" d="M202.8,162.7c12-4.2,62.7-20.8,96.1-15.6c1.1,0.2,1.8,1.2,1.5,2.3c-1.8,7.5-8.3,34.6-12,46.1
			c-0.7,2.1-2.5,3.5-4.7,3.6l-85.9,4.6l-5-13.6l6.5-24.1C199.9,164.6,201.2,163.3,202.8,162.7z"/>
		<g id="XMLID_217_" class="st12">
			<defs>
				<path id="XMLID_214_" d="M202.8,162.7c12-4.2,62.7-20.8,96.1-15.6c1.1,0.2,1.8,1.2,1.5,2.3c-1.8,7.5-8.3,34.6-12,46.1
					c-0.7,2.1-2.5,3.5-4.7,3.6l-85.9,4.6l-5-13.6l6.5-24.1C199.9,164.6,201.2,163.3,202.8,162.7z"/>
			</defs>
			<clipPath id="XMLID_3_" class="st13">
				<use xlink:href="#XMLID_214_"  style="overflow:visible;"/>
			</clipPath>
			<g id="XMLID_190_" class="st16">
				
					<rect id="XMLID_192_" x="234.8" y="124" transform="matrix(0.78 0.6258 -0.6258 0.78 162.3837 -110.5148)" class="st15" width="7.1" height="103.3"/>
				
					<rect id="XMLID_191_" x="250.7" y="129.8" transform="matrix(0.78 0.6258 -0.6258 0.78 171.7792 -125.606)" class="st15" width="27.7" height="103.3"/>
			</g>
		</g>
	</g>
</g>
</svg>
