<svg xmlns="http://www.w3.org/2000/svg" width="259" height="260">
    <defs>
        <filter id="a" width="259" height="260" x="0" y="0" filterUnits="userSpaceOnUse">
            <feOffset dx="6.151" dy="9.119" in="SourceAlpha"/>
            <feGaussianBlur result="blurOut" stdDeviation="5.745"/>
            <feFlood flood-color="#2EA86D" result="floodOut"/>
            <feComposite in="floodOut" in2="blurOut" operator="atop"/>
            <feComponentTransfer>
                <feFuncA slope=".1" type="linear"/>
            </feComponentTransfer>
            <feMerge>
                <feMergeNode/>
                <feMergeNode in="SourceGraphic"/>
            </feMerge>
        </filter>
        <linearGradient id="b" x1="47.409%" x2="0%" y1="88.048%" y2="0%">
            <stop offset="0%" stop-color="#66EDAC"/>
            <stop offset="100%" stop-color="#46D18E"/>
        </linearGradient>
    </defs>
    <path fill="#FFF" fill-rule="evenodd" d="M62 25.031h122c18.778 0 34 15.223 34 34v122c0 18.778-15.222 34-34 34H62c-18.778 0-34-15.222-34-34v-122c0-18.777 15.222-34 34-34z" filter="url(#a)"/>
    <path fill="url(#b)" fill-rule="evenodd" d="M187.627 140.748c-.063 3.603-3.091 6.195-7.019 6.302-1.372.037-2.745.006-4.117.011-.375.002-.778-.043-.914.449-.448 1.626-1.365 3.003-2.559 4.488 3.891 0 7.524-.002 11.156.003.376.001.77-.014 1.122.09.846.25 1.358.846 1.293 1.734-.063.862-.571 1.442-1.484 1.558-.407.052-.821.053-1.232.054-5.043.003-10.086.002-15.128.002h-68.632c-7.337 0-14.675.001-22.012-.001-1.685 0-2.54-.561-2.569-1.671-.03-1.149.872-1.765 2.592-1.767l8.85-.011h1.227c-1.202-1.487-2.105-2.908-2.591-4.544-.137-.463-.509-.38-.839-.381-1.269-.008-2.539.008-3.808-.008-4.79-.062-7.799-3.05-7.859-7.803-.014-1.122-.03-2.244.007-3.365.02-.585-.191-.762-.767-.754-1.818.028-3.636.002-5.454.015-.49.003-.988-.015-1.401-.253-.713-.411-1.07-1.052-.872-1.89.22-.931.895-1.356 1.805-1.37 1.921-.03 3.843-.041 5.763.002.709.015.941-.181.931-.907a417.065 417.065 0 0 1-.013-9.687c.008-.741-.258-.924-.951-.9a68.057 68.057 0 0 1-3.807-.001c-1.159-.026-1.944-.706-1.979-1.652-.036-.996.736-1.771 1.93-1.819a39.928 39.928 0 0 1 3.806.003c.849.048 1.028-.266 1.016-1.045a242.75 242.75 0 0 1 .003-8.361c.015-.799-.258-.951-.997-.946-4.493.032-8.987.015-13.481.017-.482.001-.964.012-1.423-.158-.823-.306-1.332-.872-1.241-1.773.089-.88.672-1.385 1.522-1.566.296-.063.615-.034.923-.034 4.528-.002 9.057-.031 13.584.023.942.011 1.118-.277 1.113-1.144-.025-4.213-.015-8.428.057-12.641.06-3.592 3.247-6.867 7.514-6.858 3.053.007 6.106-.006 9.16-.005 19.382.001 38.764.011 58.146-.016.966-.002 1.31.188 1.26 1.207-.09 1.831.014 3.671-.043 5.505-.025.791.256.958 1.001.951 3.43-.033 6.864.087 10.291-.027 5.46-.181 9.086 2.553 11.838 6.899 1.989 3.14 2.594 6.679 3.217 10.226.465 2.642.955 5.28 1.386 7.927.119.723.424.934 1.149.901a29.535 29.535 0 0 1 3.392.057c3.275.227 6.083 2.919 6.137 6.173.103 6.253.111 12.509.001 18.761zm-23 6.396c1.58-.021 3.009-1.483 2.966-3.035-.043-1.563-1.405-2.886-2.978-2.892-1.659-.007-3.002 1.314-2.999 2.95.003 1.587 1.432 2.999 3.011 2.977zm-68.009.011c1.54.026 3.03-1.45 3.02-2.993-.01-1.591-1.425-2.96-3.041-2.942-1.61.017-2.934 1.314-2.96 2.901-.026 1.554 1.401 3.006 2.981 3.034zm13.762-54.188c-7.941.011-14.373 6.398-14.372 14.273 0 7.886 6.418 14.248 14.375 14.248 7.952.001 14.382-6.368 14.387-14.249.004-7.848-6.484-14.282-14.39-14.272zm34.271 38.552c-11.145.03-22.29.02-33.435.019H89.714c-4.046 0-8.092-.001-12.139.004-.457 0-.992-.14-.982.649.032 2.548-.045 5.099.057 7.644.09 2.225 1.692 3.664 3.959 3.729 1.199.035 2.403-.041 3.6.026.772.043 1.012-.266 1.087-.969.272-2.525 1.416-4.642 3.174-6.461 3.317-3.436 9.005-4.376 13.257-2.186 3.599 1.854 5.702 4.762 6.274 8.743.082.573.227.876.944.874 11.968-.03 23.936-.03 35.904-.014.69 0 .861-.218.856-.874-.027-3.363-.033-6.728.015-10.091.011-.827-.19-1.095-1.069-1.093zm-24.588 15.544c-3.77 0-7.54-.005-11.31.006-.383.001-.929-.187-1.081.33-.492 1.675-1.433 3.103-2.556 4.558h51.075c-1.13-1.3-1.97-2.51-2.388-3.91-.248-.828-.65-1.003-1.452-1.002-10.763.026-21.525.018-32.288.018zm64.091-24.207c-.005-2.24-1.392-3.618-3.645-3.642a248.35 248.35 0 0 0-5.66.004c-.535.007-.751-.122-.848-.7a790.204 790.204 0 0 0-2.006-11.438c-.547-3.002-.972-6.043-2.716-8.684-2.113-3.2-4.772-5.303-8.938-5.08-3.319.176-6.654.071-9.981.015-.905-.014-1.146.225-1.142 1.124.036 7.988.021 15.976.021 23.963h-.004v11.116c0 3.705-.014 7.41.012 11.115.006.94-.43 2.16.196 2.746.612.572 1.834.095 2.781.186.706.067.964-.219 1.024-.899.142-1.616.74-3.084 1.563-4.48 3.777-6.407 13.465-7.268 18.338-1.636 1.512 1.747 2.516 3.711 2.783 6.002.093.796.389 1.09 1.228 1.025 1.091-.085 2.194-.013 3.291-.023 2.315-.021 3.699-1.382 3.703-3.685.011-5.676.011-11.353 0-17.029zm-15.825-3.726c-4.352-.04-8.705-.041-13.057-.008-.712.005-.851-.235-.846-.87.025-3.26.012-6.52.011-9.78 0-3.225.016-6.452-.013-9.677-.006-.653.154-.907.856-.868 1.059.06 2.128.075 3.186.006 4.348-.287 6.975 2.863 7.835 5.774.875 2.963 1.247 6.041 1.816 9.072.339 1.8.604 3.614.96 5.411.136.69.057.948-.748.94zm-56.765-9.526c-.441.545-.959.763-1.616.559-.72-.225-.968-.765-.964-1.495.021-3.968.024-7.937.03-11.906.001-.627.028-1.243.697-1.568 1.017-.494 2.017.131 2.031 1.315.028 2.34.012 4.681.013 7.022v1.107l.221.117c.749-.906 1.49-1.82 2.249-2.718.735-.87 1.498-1 2.189-.403.672.58.66 1.271-.054 2.14-1.598 1.943-3.212 3.875-4.796 5.83z"/>
</svg>
