<svg xmlns="http://www.w3.org/2000/svg" width="22" height="22">
    <path fill="#49CE8E" fill-rule="evenodd" d="M18.333 0H2.933l.061.027C1.318.164-.001 1.467-.001 3.071v5.17h5.867v13.047c0 .229.122.441.323.569a.776.776 0 0 0 .683.069l3.394-1.272 3.394 1.272c.175.067.37.067.544 0l3.395-1.272 3.394 1.272a.783.783 0 0 0 .684-.069.674.674 0 0 0 .322-.569V3.434C21.999 1.541 20.355 0 18.333 0zM5.866 4.12v2.747h-4.4V3.071c0-.936.814-1.698 1.813-1.698h.774c.999 0 1.813.762 1.813 1.698V4.12zm12.467 12.361h-5.867c-.405 0-.733-.307-.733-.686 0-.379.328-.687.733-.687h5.867c.405 0 .733.308.733.687 0 .379-.328.686-.733.686zm0-2.747h-5.867c-.405 0-.733-.307-.733-.686 0-.379.328-.687.733-.687h5.867c.405 0 .733.308.733.687 0 .379-.328.686-.733.686zm0-2.746h-8.8c-.405 0-.734-.308-.734-.687 0-.379.329-.687.734-.687h8.8c.405 0 .733.308.733.687 0 .379-.328.687-.733.687zm0-5.494h-8.8c-.405 0-.734-.308-.734-.687 0-.379.329-.687.734-.687h8.8c.405 0 .733.308.733.687 0 .379-.328.687-.733.687z"/>
</svg>
