<svg xmlns="http://www.w3.org/2000/svg" width="20" height="21">
    <path fill="#49CE8E" fill-rule="evenodd" d="M19.548 16.817l-3.088-3.103c-.615-.615-1.633-.597-2.269.042l-1.556 1.563-.307-.171c-.982-.547-2.327-1.297-3.742-2.72-1.419-1.425-2.165-2.778-2.712-3.765a12.725 12.725 0 0 0-.167-.301l1.044-1.048.514-.516c.637-.641.655-1.664.041-2.282L4.218 1.413c-.613-.616-1.632-.597-2.27.044l-.87.879.024.023A5.064 5.064 0 0 0 .385 3.63a5.283 5.283 0 0 0-.32 1.289c-.407 3.396 1.137 6.5 5.329 10.712 5.795 5.822 10.464 5.382 10.666 5.36a5.198 5.198 0 0 0 1.286-.324 5.002 5.002 0 0 0 1.26-.718l.019.017.882-.867c.636-.641.654-1.664.041-2.282z"/>
</svg>
