<svg xmlns="http://www.w3.org/2000/svg" width="26" height="20">
    <path fill="#49CE8E" fill-rule="evenodd" d="M19.51 11.066a411.42 411.42 0 0 1 5.039-3.382A7.98 7.98 0 0 0 26 6.448V17.42l-6.49-6.354zm4.009-4.902l-5.322 3.617a844.147 844.147 0 0 0-1.685 1.15l-.4.282c-.314.223-.575.403-.784.54-.207.137-.459.291-.754.462-.295.17-.573.298-.834.383a2.357 2.357 0 0 1-.726.128h-.028c-.223 0-.465-.043-.726-.128a4.451 4.451 0 0 1-.834-.383 15.042 15.042 0 0 1-.755-.462 28.08 28.08 0 0 1-.783-.54l-.4-.282-.217-.151A676.74 676.74 0 0 0 5.47 8.188a719.902 719.902 0 0 1-2.975-2.024C1.896 5.766 1.33 5.219.798 4.523.266 3.827 0 3.181 0 2.585 0 1.846.2 1.23.602.738 1.003.246 1.576 0 2.321 0h21.357c.629 0 1.173.223 1.633.667.459.446.689.98.689 1.606 0 .748-.238 1.462-.711 2.144a6.84 6.84 0 0 1-1.77 1.747zM1.465 7.684a516.837 516.837 0 0 1 5.027 3.379L0 17.419V6.448c.425.464.914.876 1.465 1.236zm7.211 4.9c.551.397.999.707 1.342.93.343.222.8.449 1.371.681.571.233 1.103.349 1.596.349H13.014c.493 0 1.025-.116 1.596-.349.57-.232 1.027-.459 1.371-.681.344-.223.791-.533 1.342-.93.162-.115.333-.236.51-.359l7.366 7.211c-.43.373-.937.562-1.521.562H2.321A2.249 2.249 0 0 1 .8 19.436l7.367-7.213c.184.129.355.25.509.361z"/>
</svg>
