<svg xmlns="http://www.w3.org/2000/svg" width="279" height="279">
    <defs>
        <filter id="a" width="279" height="279" x="0" y="0" filterUnits="userSpaceOnUse">
            <feOffset dx="6.151" dy="9.119" in="SourceAlpha"/>
            <feGaussianBlur result="blurOut" stdDeviation="5.745"/>
            <feFlood flood-color="#2EA86D" result="floodOut"/>
            <feComposite in="floodOut" in2="blurOut" operator="atop"/>
            <feComponentTransfer>
                <feFuncA slope=".1" type="linear"/>
            </feComponentTransfer>
            <feMerge>
                <feMergeNode/>
                <feMergeNode in="SourceGraphic"/>
            </feMerge>
        </filter>
        <linearGradient id="b" x1="0%" x2="0%" y1="100%" y2="0%">
            <stop offset="0%" stop-color="#F2FFF9"/>
            <stop offset="100%" stop-color="#FAFDFC"/>
        </linearGradient>
        <linearGradient id="c" x1="47.409%" x2="0%" y1="88.048%" y2="0%">
            <stop offset="0%" stop-color="#66EDAC"/>
            <stop offset="100%" stop-color="#46D18E"/>
        </linearGradient>
    </defs>
    <path fill="url(#b)" fill-rule="evenodd" d="M58.082 47.31l115.684-21.119c19.558-3.57 38.311 9.371 41.886 28.906l21.144 115.545c3.574 19.535-9.383 38.265-28.941 41.836L92.171 233.596c-19.558 3.57-38.311-9.371-41.886-28.906L29.141 89.145C25.567 69.61 38.524 50.88 58.082 47.31z" filter="url(#a)"/>
    <path fill="#EFFFF7" fill-rule="evenodd" d="M128.206 101.206l11.2-7h14l7 11.2-2.8 9.8-7 8.4-11.2 1.4-5.6-4.2-5.6-7v-12.6z"/>
    <path fill="url(#c)" fill-rule="evenodd" d="M186.461 182.497c.017.615-.112.83-.785.824-4.569-.034-9.137-.018-13.706-.018-4.593 0-9.185-.011-13.777.014-.574.003-.766-.134-.734-.728.051-.936.036-1.877.003-2.814-.015-.433.089-.612.551-.653 4.2-.371 8.397-.761 12.595-1.154 4.707-.441 9.415-.876 14.119-1.344 1.725-.172 1.721-.213 1.721 1.51 0 1.454-.028 2.91.013 4.363zm-3.475-8.838c-5.036.459-10.071.93-15.106 1.403-2.691.253-5.382.503-8.07.783-.501.052-.804-.068-1.095-.498-1.63-2.417-3.934-3.579-6.82-3.592-5.969-.028-11.939-.128-17.907-.045-3.957.055-7.459-1.135-10.735-3.244-2.771-1.783-5.089-4.102-7.5-6.312a248.362 248.362 0 0 0-7.791-6.857c-1.987-1.673-2.35-4.487-.83-6.492 1.534-2.023 4.304-2.419 6.431-.939 4.237 2.948 8.514 5.837 12.725 8.823 2.378 1.686 5.099 2.373 7.984 2.382 5.341.015 10.682.004 16.023.003.14 0 .281.007.419-.005.843-.074 1.419-.646 1.39-1.377-.029-.743-.616-1.283-1.466-1.287-3.498-.01-6.996.019-10.494-.013-1.827-.017-3.17-.923-3.922-2.583-.738-1.629-.573-3.217.585-4.617.837-1.009 1.944-1.504 3.259-1.504l11.124-.001c3.359 0 6.717-.015 10.075.005 2.152.013 4.28.252 6.349.883 2.926.892 5.185 2.705 6.978 5.152 2.05 2.797 3.515 5.912 4.805 9.111 1.366 3.388 2.647 6.811 3.995 10.206.204.516.038.574-.406.615zm-46.774-31.501c-1.153 1.383-2.307 2.767-3.451 4.158-.232.282-.377.45-.759.125-7.203-6.106-14.42-12.194-21.632-18.287-.068-.058-.124-.129-.185-.194l.061-.117c1.414.458 2.827.918 4.243 1.374 2.351.755 4.7 1.516 7.055 2.258 3.704 1.166 7.497-.534 9.008-4.025 1.538-3.554.199-7.478-3.232-9.428a1353.614 1353.614 0 0 0-9.754-5.503c-.482-.269-.562-.425-.177-.884 8.505-10.18 16.995-20.374 25.488-30.565 1.528-1.833 3.08-3.647 4.567-5.513.446-.56.695-.492 1.184-.076 6.592 5.597 13.202 11.172 19.807 16.752 1.678 1.418 3.349 2.845 5.043 4.243.372.306.407.497.087.881-12.458 14.928-24.905 29.865-37.353 44.801zm14.903-31.034c-.328-5.038-3.006-8.556-7.642-10.405-6.991-2.787-14.246 2.093-14.234 9.477.011 6.703 6.153 12.198 12.831 11.479 5.391-.582 9.398-5.128 9.045-10.551zm-4.549 5.31c-.333.354-.557.997-.982 1.021-.347.019-.742-.49-1.08-.803-.262-.241-.427-.239-.69.015a7.507 7.507 0 0 1-2.196 1.479c-.327.144-.539.126-.752-.201a26.302 26.302 0 0 0-1.344-1.886c-.301-.381-.136-.486.215-.619a6.243 6.243 0 0 0 2.607-1.83 3.03 3.03 0 0 0 .472-.776c.121-.284.139-.55-.072-.788-.205-.234-.476-.277-.768-.201-.572.149-1.074.447-1.571.752-.741.455-1.515.841-2.369 1.014-2.366.478-4.377-1.22-4.37-3.67-.013-.547.063-1.085.292-1.578.19-.408.112-.653-.235-.944-1.055-.885-1.041-.903-.134-1.974.03-.036.063-.069.093-.105.785-.935.798-.951 1.737-.155.309.263.483.313.79-.01.484-.51 1.084-.874 1.718-1.19.326-.163.498-.099.69.183.421.619.853 1.232 1.309 1.825.247.32.17.469-.168.617-.8.349-1.503.843-2.09 1.499-.22.246-.418.504-.544.812-.094.228-.125.456.054.661.178.203.393.204.638.13.722-.22 1.353-.621 2.005-.982 1.099-.609 2.242-1.085 3.53-.796 2.354.527 3.619 2.964 2.739 5.4-.231.641-.113.935.377 1.316.959.748.936.777.144 1.73-.015.018-.029.037-.045.054zm-29.472-8.994c-.286.345-.576.473-1.011.459-.908-.03-1.818-.013-2.728-.009-1.361.008-2.402.739-2.712 1.896-.319 1.189.193 2.297 1.41 2.987 4.588 2.599 9.183 5.186 13.77 7.788 2.163 1.227 2.978 3.589 2.017 5.773-.919 2.087-3.19 3.043-5.519 2.296-4.9-1.573-9.788-3.186-14.698-4.729-2.427-.762-4.473-2.056-6.147-3.975-.521-.598-1.042-1.203-1.677-1.691-.788-.606-1.65-.833-2.627-.576-2.298.604-4.598 1.198-6.896 1.8-.863.226-.862.232-.862-.627v-10.139c0-3.403.012-6.806-.012-10.209-.004-.556.095-.826.712-.753 1.447.17 2.806-.241 4.176-.644 4.111-1.211 8.247-2.337 12.347-3.588 3.152-.961 6.293-.846 9.472-.258 3.503.648 7.009 1.278 10.519 1.886.571.099.536.228.215.612a2861.988 2861.988 0 0 0-9.749 11.701zm-31.585 16.873a24.789 24.789 0 0 0-2.657 0c-.524.028-.74-.133-.783-.666-.123-1.565-.286-3.126-.431-4.69-.272-2.939-.545-5.878-.813-8.818-.259-2.824-.51-5.649-.768-8.473-.181-1.982-.342-3.968-.569-5.946-.06-.52.096-.575.527-.571 1.843.018 3.686.028 5.527-.004.541-.01.706.125.703.693-.024 4.648-.014 9.296-.014 13.943 0 4.601-.011 9.202.014 13.802.003.589-.157.763-.736.73z"/>
</svg>
