<svg xmlns="http://www.w3.org/2000/svg" width="278" height="278">
    <defs>
        <filter id="a" width="278" height="278" x="0" y="0" filterUnits="userSpaceOnUse">
            <feOffset dx="6.151" dy="9.119" in="SourceAlpha"/>
            <feGaussianBlur result="blurOut" stdDeviation="5.745"/>
            <feFlood flood-color="#2EA86D" result="floodOut"/>
            <feComposite in="floodOut" in2="blurOut" operator="atop"/>
            <feComponentTransfer>
                <feFuncA slope=".1" type="linear"/>
            </feComponentTransfer>
            <feMerge>
                <feMergeNode/>
                <feMergeNode in="SourceGraphic"/>
            </feMerge>
        </filter>
        <linearGradient id="b" x1="0%" x2="0%" y1="100%" y2="0%">
            <stop offset="0%" stop-color="#F3FFF9"/>
            <stop offset="100%" stop-color="#FAFDFC"/>
        </linearGradient>
        <linearGradient id="c" x1="47.409%" x2="0%" y1="88.048%" y2="0%">
            <stop offset="0%" stop-color="#66EDAC"/>
            <stop offset="100%" stop-color="#46D18E"/>
        </linearGradient>
    </defs>
    <path fill="url(#b)" fill-rule="evenodd" d="M58.079 46.84l115.327-21.039c19.498-3.557 38.193 9.336 41.757 28.797l21.078 115.109c3.564 19.461-9.353 38.121-28.851 41.678L92.063 232.424c-19.498 3.557-38.193-9.336-41.757-28.797L29.227 88.518c-3.564-19.462 9.354-38.121 28.852-41.678z" filter="url(#a)"/>
    <path fill="#EFFFF7" fill-rule="evenodd" d="M201.766 155.2c-.069 3.979-3.372 6.844-7.659 6.961-1.496.041-2.994.007-4.491.013-.409.001-.85-.048-.998.496-.489 1.795-1.49 3.316-2.793 4.958 4.247 0 8.211-.003 12.175.004.409 0 .839-.017 1.223.098.924.276 1.483.935 1.411 1.915-.069.953-.623 1.594-1.62 1.722-.443.057-.895.059-1.344.059-5.502.004-11.004.002-16.507.002h-74.888c-8.006 0-16.012.001-24.018-.001-1.839 0-2.772-.619-2.804-1.845-.032-1.27.952-1.95 2.829-1.953l9.657-.012h1.339c-1.313-1.642-2.297-3.212-2.827-5.019-.15-.512-.556-.419-.916-.422-1.385-.008-2.77.01-4.155-.008-5.227-.068-8.51-3.369-8.576-8.62-.015-1.239-.033-2.48.008-3.717.022-.646-.208-.843-.837-.833-1.984.03-3.968.002-5.952.016-.534.004-1.077-.017-1.528-.279-.778-.454-1.167-1.163-.951-2.088.24-1.029.976-1.498 1.969-1.514 2.096-.033 4.193-.044 6.289.002.773.017 1.026-.2 1.016-1.001a471.345 471.345 0 0 1-.015-10.702c.009-.819-.281-1.02-1.037-.994-1.383.047-2.77.029-4.154-.001-1.264-.029-2.122-.779-2.16-1.825-.039-1.1.804-1.957 2.106-2.009 1.383-.057 2.773-.074 4.153.004.926.052 1.122-.294 1.108-1.155-.047-3.079-.053-6.159.004-9.237.016-.883-.281-1.051-1.087-1.045-4.904.034-9.808.016-14.711.019-.526 0-1.052.014-1.552-.175-.899-.338-1.454-.963-1.354-1.958.097-.973.733-1.53 1.66-1.73.323-.07.671-.038 1.007-.038 4.941-.002 9.883-.035 14.823.025 1.028.013 1.219-.306 1.214-1.263-.027-4.655-.016-9.31.062-13.965.066-3.968 3.543-7.586 8.199-7.576 3.332.007 6.663-.006 9.995-.006 21.149.001 42.298.012 63.447-.018 1.054-.001 1.428.208 1.374 1.334-.099 2.022.016 4.055-.047 6.081-.027.874.279 1.059 1.092 1.05 3.743-.036 7.49.097 11.229-.029 5.959-.199 9.915 2.821 12.918 7.621 2.169 3.469 2.83 7.379 3.51 11.297.507 2.919 1.042 5.833 1.513 8.757.128.799.462 1.032 1.253.996a31.748 31.748 0 0 1 3.701.063c3.573.251 6.638 3.225 6.697 6.819.112 6.907.121 13.82 0 20.726z"/>
    <path fill="url(#c)" fill-rule="evenodd" d="M196.627 151.749c-.063 3.602-3.091 6.195-7.019 6.301-1.372.037-2.745.006-4.117.011-.375.002-.778-.043-.914.45-.448 1.625-1.365 3.002-2.559 4.487 3.891 0 7.524-.002 11.156.004.376.001.77-.015 1.122.089.847.25 1.359.846 1.293 1.734-.063.863-.571 1.443-1.484 1.558-.407.052-.821.053-1.232.054-5.043.003-10.085.002-15.128.002h-68.632c-7.337 0-14.675.001-22.012-.001-1.685 0-2.54-.561-2.569-1.671-.03-1.149.872-1.764 2.592-1.767l8.851-.011h1.226c-1.202-1.487-2.105-2.908-2.59-4.544-.138-.463-.51-.379-.84-.381-1.269-.008-2.539.008-3.808-.008-4.79-.062-7.799-3.05-7.859-7.803-.014-1.122-.03-2.244.007-3.365.02-.584-.191-.762-.767-.754-1.818.028-3.636.002-5.454.015-.49.004-.988-.015-1.401-.253-.713-.411-1.07-1.052-.872-1.89.22-.931.895-1.356 1.805-1.37 1.921-.03 3.843-.041 5.763.002.709.015.941-.181.931-.906a422.796 422.796 0 0 1-.013-9.688c.008-.741-.258-.923-.951-.9a68.057 68.057 0 0 1-3.807-.001c-1.158-.026-1.944-.705-1.979-1.652-.036-.995.737-1.771 1.93-1.819a39.6 39.6 0 0 1 3.806.004c.849.047 1.028-.266 1.016-1.046a242.75 242.75 0 0 1 .003-8.361c.015-.799-.258-.95-.996-.946-4.494.032-8.988.015-13.482.018-.481 0-.964.012-1.422-.159-.824-.306-1.333-.872-1.242-1.773.089-.88.672-1.385 1.522-1.566.296-.063.615-.034.923-.034 4.528-.002 9.057-.031 13.584.023.942.011 1.118-.277 1.113-1.144-.025-4.213-.014-8.427.057-12.641.06-3.592 3.247-6.867 7.514-6.858 3.054.007 6.107-.006 9.16-.005 19.382.001 38.764.011 58.146-.016.966-.002 1.31.188 1.26 1.207-.09 1.831.014 3.671-.043 5.505-.025.791.256.958 1.001.951 3.43-.033 6.864.087 10.291-.027 5.461-.18 9.086 2.553 11.838 6.899 1.989 3.14 2.594 6.679 3.217 10.226.465 2.642.955 5.28 1.387 7.927.118.723.423.934 1.148.901a29.763 29.763 0 0 1 3.392.057c3.275.227 6.084 2.919 6.137 6.174.103 6.252.111 12.508.001 18.761zm-23 6.395c1.58-.021 3.009-1.483 2.966-3.035-.043-1.563-1.404-2.886-2.978-2.892-1.659-.007-3.002 1.315-2.999 2.95.003 1.587 1.432 2.999 3.011 2.977zm-68.008.011c1.539.026 3.03-1.45 3.019-2.993-.01-1.591-1.425-2.96-3.041-2.942-1.61.017-2.934 1.314-2.96 2.901-.026 1.554 1.401 3.007 2.982 3.034zm13.761-54.188c-7.941.011-14.373 6.398-14.372 14.273 0 7.886 6.418 14.248 14.375 14.249 7.952 0 14.382-6.369 14.387-14.25.004-7.848-6.484-14.282-14.39-14.272zm34.271 38.552c-11.145.03-22.29.02-33.435.02H98.714c-4.046 0-8.092-.002-12.139.003-.457 0-.992-.14-.982.649.032 2.548-.045 5.099.057 7.644.09 2.226 1.693 3.664 3.959 3.729 1.2.035 2.403-.041 3.6.026.772.043 1.012-.266 1.087-.969.272-2.525 1.416-4.641 3.174-6.461 3.317-3.435 9.005-4.376 13.257-2.186 3.599 1.854 5.702 4.762 6.274 8.743.082.573.227.876.944.875 11.968-.03 23.936-.031 35.904-.015.69 0 .861-.218.856-.874-.027-3.363-.033-6.728.015-10.091.012-.827-.19-1.095-1.069-1.093zm-24.588 15.544c-3.77 0-7.54-.005-11.31.007-.383.001-.929-.188-1.081.329-.492 1.675-1.433 3.103-2.556 4.558h51.075c-1.13-1.3-1.97-2.51-2.388-3.909-.248-.829-.65-1.004-1.452-1.003-10.763.026-21.525.018-32.288.018zm64.091-24.207c-.005-2.24-1.392-3.618-3.645-3.641-1.886-.02-3.773-.021-5.66.003-.535.007-.751-.122-.848-.699a790.338 790.338 0 0 0-2.006-11.439c-.547-3.002-.972-6.042-2.716-8.684-2.113-3.2-4.772-5.302-8.938-5.08-3.319.176-6.654.071-9.981.016-.905-.015-1.146.224-1.142 1.123.036 7.988.021 15.976.021 23.963h-.004v11.116c0 3.705-.014 7.41.012 11.115.006.94-.43 2.161.196 2.746.612.572 1.834.095 2.781.186.706.067.964-.219 1.024-.899.142-1.616.74-3.083 1.563-4.48 3.777-6.406 13.465-7.268 18.338-1.636 1.512 1.747 2.516 3.711 2.783 6.002.093.796.389 1.09 1.228 1.025 1.091-.085 2.194-.013 3.291-.023 2.315-.021 3.699-1.381 3.703-3.685.011-5.676.011-11.353 0-17.029zm-15.825-3.726c-4.352-.04-8.705-.041-13.057-.008-.712.005-.851-.235-.846-.87.025-3.259.012-6.519.011-9.78 0-3.225.016-6.452-.013-9.677-.006-.653.154-.907.856-.868 1.059.06 2.128.075 3.186.006 4.348-.286 6.975 2.864 7.835 5.774.875 2.964 1.247 6.041 1.816 9.072.339 1.8.604 3.615.96 5.411.137.691.057.948-.748.94zm-56.765-9.526c-.441.545-.959.763-1.616.559-.72-.225-.968-.765-.964-1.495.021-3.968.024-7.937.03-11.906.001-.627.028-1.243.697-1.568 1.017-.494 2.017.132 2.031 1.315.028 2.341.012 4.682.013 7.022v1.107l.221.118c.749-.907 1.49-1.821 2.249-2.719.735-.87 1.498-1 2.189-.403.672.58.66 1.271-.053 2.14-1.598 1.943-3.213 3.875-4.797 5.83z"/>
</svg>
