<svg xmlns="http://www.w3.org/2000/svg" width="19" height="19">
    <path fill="#828286" fill-rule="evenodd" d="M13.339 19H5.66A5.667 5.667 0 0 1 0 13.339V5.66A5.666 5.666 0 0 1 5.66 0h7.679A5.667 5.667 0 0 1 19 5.66v7.679A5.667 5.667 0 0 1 13.339 19zm3.749-13.34a3.748 3.748 0 0 0-3.749-3.749H5.66A3.749 3.749 0 0 0 1.911 5.66v7.679a3.749 3.749 0 0 0 3.749 3.749h7.679a3.748 3.748 0 0 0 3.749-3.749V5.66zm-2.665.14a1.178 1.178 0 1 1 .002-2.356 1.178 1.178 0 0 1-.002 2.356zM9.5 14.413a4.919 4.919 0 0 1-4.914-4.914A4.92 4.92 0 0 1 9.5 4.585a4.92 4.92 0 0 1 4.914 4.914A4.92 4.92 0 0 1 9.5 14.413zm0-7.916a3.003 3.003 0 1 0 0 6.006 3.003 3.003 0 0 0 0-6.006z"/>
</svg>
