<svg xmlns="http://www.w3.org/2000/svg" width="20" height="16">
    <path fill="#0BA8CF" fill-rule="evenodd" d="M19.154 14.5h-12.7c-2.633 0-4.801-2.012-4.801-4.455 0-2.447 2.168-4.455 4.801-4.455H8.23L4.927 8.234a.762.762 0 0 0-.086 1.106c.417.462 1.062.208 1.188.08l5.014-4.023a.775.775 0 0 0 0-1.182L6.029.184c-.383-.276-.89-.235-1.188.08-.298.356-.253.829.086 1.106L8.23 4.014H6.454C2.886 4.01 0 6.692 0 10.003S2.886 16 6.454 16H19.11c.465 0 .89-.277.89-.709 0-.432-.38-.791-.846-.791z"/>
</svg>
