<svg xmlns="http://www.w3.org/2000/svg" width="22" height="22">
    <path fill="#F03B3B" fill-rule="evenodd" d="M11 21.999c-6.065 0-11-4.934-11-11C0 4.934 4.935 0 11 0c6.066 0 11 4.934 11 10.999-.001 6.066-4.935 11-11 11zm0-20.743c-5.372 0-9.743 4.371-9.743 9.743s4.37 9.743 9.743 9.743c5.372 0 9.743-4.371 9.743-9.743S16.372 1.256 11 1.256zm.889 9.743l2.622 2.622a.63.63 0 0 1-.889.889l-2.347-2.347-.008-.009-.267-.266-.266.266-.009.009-2.346 2.347a.626.626 0 0 1-.89 0 .628.628 0 0 1 0-.889l2.622-2.622-2.622-2.623a.628.628 0 1 1 .889-.888l2.347 2.348.008.007.267.267.267-.267a.027.027 0 0 1 .008-.007l2.347-2.348a.628.628 0 1 1 .889.888l-2.622 2.623z"/>
</svg>
