<svg xmlns="http://www.w3.org/2000/svg" width="20" height="20">
    <path fill="#49CE8E" fill-rule="evenodd" d="M10 0c5.522 0 10 4.477 10 10 0 5.522-4.478 10-10 10-5.524 0-10-4.478-10-10C0 4.477 4.476 0 10 0z"/>
    <path fill="#FFF" fill-rule="evenodd" d="M8.713 7.557c-.752 2.192.252 4.887 2.309 6.051l.302-.785c.147-.376.372-.464.73-.282.521.265 1.04.53 1.56.797.37.191.465.438.315.827-.209.545-.42 1.09-.63 1.634-.146.373-.374.46-.732.277-.654-.334-1.317-.649-1.96-1.008a6.719 6.719 0 0 1-2.709-2.756c-.71-1.331-.98-2.729-.787-4.185.063-.473.178-.941.327-1.385.232-.693.514-1.364.777-2.044.15-.387.373-.473.741-.286l1.559.799c.359.185.454.435.309.814l-.636 1.652c-.141.363-.371.449-.722.271-.251-.128-.502-.26-.753-.391z"/>
</svg>
