<svg 
 xmlns="http://www.w3.org/2000/svg"
 xmlns:xlink="http://www.w3.org/1999/xlink"
 width="277px" height="277px">
<defs>
<filter filterUnits="userSpaceOnUse" id="Filter_0" x="0px" y="0px" width="277px" height="277px"  >
    <feOffset in="SourceAlpha" dx="6.151" dy="9.119" />
    <feGaussianBlur result="blurOut" stdDeviation="5.745" />
    <feFlood flood-color="rgb(46, 168, 109)" result="floodOut" />
    <feComposite operator="atop" in="floodOut" in2="blurOut" />
    <feComponentTransfer><feFuncA type="linear" slope="0.1"/></feComponentTransfer>
    <feMerge>
    <feMergeNode/>
    <feMergeNode in="SourceGraphic"/>
  </feMerge>
</filter>
<linearGradient id="PSgrad_0" x1="0%" x2="0%" y1="100%" y2="0%">
  <stop offset="0%" stop-color="rgb(242,255,249)" stop-opacity="1" />
  <stop offset="100%" stop-color="rgb(250,253,252)" stop-opacity="1" />
</linearGradient>
<linearGradient id="PSgrad_1" x1="47.409%" x2="0%" y1="88.048%" y2="0%">
  <stop offset="0%" stop-color="rgb(102,237,172)" stop-opacity="1" />
  <stop offset="100%" stop-color="rgb(70,209,142)" stop-opacity="1" />
</linearGradient>

</defs>
<g filter="url(#Filter_0)">
<path fill-rule="evenodd"  fill="url(#PSgrad_0)"
 d="M57.667,47.299 L172.393,26.405 C191.790,22.873 210.387,35.677 213.933,55.004 L234.902,169.318 C238.447,188.645 225.597,207.177 206.200,210.709 L91.474,231.602 C72.078,235.135 53.480,222.331 49.935,203.004 L28.966,88.689 C25.421,69.363 38.271,50.831 57.667,47.299 Z"/>
</g>
<path fill-rule="evenodd"  fill="rgb(242, 255, 249)"
 d="M160.000,79.594 C170.045,79.594 178.187,87.743 178.187,97.797 C178.187,107.850 170.045,116.000 160.000,116.000 C149.955,116.000 141.812,107.850 141.812,97.797 C141.812,87.743 149.955,79.594 160.000,79.594 Z"/>
<path fill-rule="evenodd"  fill="url(#PSgrad_1)"
 d="M182.996,169.133 C177.976,167.751 172.904,166.570 167.835,165.376 C165.300,164.780 162.772,164.152 160.229,163.587 C159.235,163.366 158.738,162.888 158.548,161.846 C157.443,155.793 156.268,149.751 155.115,143.707 C155.083,143.540 155.036,143.376 155.007,143.254 C155.070,142.651 155.247,142.167 155.662,141.752 C159.662,137.744 163.662,133.737 167.631,129.700 C168.332,128.987 168.528,129.269 168.812,130.012 C173.655,142.697 178.516,155.376 183.371,168.056 C183.432,168.214 183.465,168.383 183.532,168.538 C183.786,169.124 183.763,169.344 182.996,169.133 ZM163.542,128.616 C160.894,131.207 158.222,133.771 155.573,136.360 C155.246,136.679 155.048,136.883 154.604,136.454 C146.985,129.090 139.403,121.691 133.355,112.939 C131.799,110.687 130.507,108.315 130.075,105.532 C129.278,100.399 129.909,95.474 132.178,90.812 C135.603,83.776 141.059,79.009 148.745,77.009 C156.440,75.006 163.541,76.545 169.938,81.119 C174.944,84.700 178.144,89.553 179.621,95.511 C180.141,97.607 180.288,99.740 180.393,101.434 C180.300,108.438 178.003,114.070 173.376,118.812 C170.143,122.126 166.851,125.379 163.542,128.616 ZM155.181,85.747 C146.838,85.723 140.654,92.813 141.001,99.781 C140.649,106.701 146.691,113.813 155.180,113.832 C162.903,113.848 169.234,107.523 169.362,99.979 C169.489,92.527 163.269,85.771 155.181,85.747 ZM161.825,99.272 C159.763,100.636 157.727,102.031 155.646,103.371 C154.826,103.899 153.953,103.544 153.943,102.640 C153.897,98.748 153.920,94.855 153.938,90.962 C153.940,90.376 154.330,89.974 155.009,90.000 C155.875,90.033 156.044,90.598 156.042,91.256 C156.034,94.302 156.039,97.348 156.039,100.661 C157.667,99.595 159.087,98.687 160.480,97.746 C161.095,97.330 161.703,97.176 162.218,97.768 C162.723,98.350 162.449,98.859 161.825,99.272 ZM129.895,133.302 C129.897,133.991 129.633,134.463 129.042,134.808 C123.953,137.781 118.868,140.762 113.779,143.735 C113.550,143.869 113.292,143.954 112.839,144.153 C113.337,141.598 113.796,139.271 114.243,136.940 C115.182,132.035 116.114,127.128 117.050,122.221 C117.273,121.053 117.510,119.887 117.726,118.717 C117.827,118.175 118.038,118.102 118.568,118.322 C122.013,119.752 125.471,121.152 128.936,122.535 C129.632,122.813 129.940,123.192 129.927,123.980 C129.875,127.087 129.884,130.195 129.895,133.302 ZM109.914,138.344 C109.462,140.680 109.026,143.018 108.558,145.479 C106.311,144.485 104.136,143.526 101.964,142.562 C100.806,142.049 99.658,141.515 98.495,141.014 C97.078,140.404 95.929,140.732 95.418,141.864 C94.896,143.023 95.386,144.062 96.802,144.684 C99.910,146.046 103.026,147.392 106.143,148.734 C107.830,149.460 107.875,149.457 107.549,151.202 C106.881,154.778 106.163,158.345 105.469,161.917 C105.308,162.744 104.845,163.175 103.985,163.381 C96.992,165.058 90.009,166.775 83.025,168.488 C82.133,168.707 81.252,168.968 80.155,169.266 C81.167,166.584 82.113,164.042 83.084,161.509 C87.711,149.440 92.352,137.376 96.963,125.301 C97.306,124.403 97.823,123.762 98.723,123.441 C103.432,121.764 108.150,120.112 112.846,118.403 C113.776,118.065 113.813,118.338 113.657,119.127 C112.395,125.530 111.155,131.937 109.914,138.344 ZM111.744,150.418 C111.848,149.896 112.144,149.476 112.613,149.199 C118.171,145.922 123.731,142.648 129.292,139.376 C129.433,139.294 129.601,139.255 129.861,139.157 C129.861,149.008 129.861,158.743 129.861,168.625 C128.137,168.170 126.472,167.737 124.811,167.288 C119.945,165.974 115.084,164.641 110.210,163.354 C109.542,163.177 109.244,163.008 109.404,162.232 C110.214,158.300 110.963,154.356 111.744,150.418 ZM146.907,143.952 C142.851,140.959 138.783,137.983 134.720,135.001 C134.352,134.731 134.027,134.414 134.026,133.923 C134.019,131.272 134.022,128.622 134.022,125.730 C138.005,128.817 141.773,131.736 145.539,134.658 C147.516,136.193 149.474,137.751 151.472,139.259 C151.931,139.605 151.934,139.783 151.540,140.166 C150.285,141.383 149.049,142.623 147.840,143.885 C147.501,144.239 147.281,144.228 146.907,143.952 ZM134.118,139.657 C135.537,140.678 136.886,141.637 138.221,142.613 C141.098,144.717 143.980,146.813 146.831,148.951 C147.562,149.499 148.065,149.452 148.657,148.766 C149.455,147.843 150.336,146.990 151.337,145.944 C152.023,149.460 152.658,152.685 153.280,155.913 C153.712,158.149 154.101,160.393 154.565,162.623 C154.666,163.109 154.624,163.223 154.117,163.358 C147.698,165.070 141.290,166.817 134.880,168.562 C134.339,168.709 134.015,168.767 134.017,167.988 C134.043,158.702 134.035,149.415 134.038,140.129 C134.038,140.033 134.069,139.938 134.118,139.657 Z"/>
</svg>