<svg 
 xmlns="http://www.w3.org/2000/svg"
 xmlns:xlink="http://www.w3.org/1999/xlink"
 width="124px" height="124px">
<defs>
<linearGradient id="PSgrad_0" x1="46.947%" x2="0%" y1="88.295%" y2="0%">
  <stop offset="0%" stop-color="rgb(102,237,172)" stop-opacity="1" />
  <stop offset="100%" stop-color="rgb(70,209,142)" stop-opacity="1" />
</linearGradient>

</defs>
<path fill-rule="evenodd"  fill="rgb(255, 255, 255)"
 d="M34.000,0.031 L89.875,0.031 C108.653,0.031 123.875,15.253 123.875,34.031 L123.875,90.000 C123.875,108.777 108.653,124.000 89.875,124.000 L34.000,124.000 C15.222,124.000 -0.000,108.777 -0.000,90.000 L-0.000,34.031 C-0.000,15.253 15.222,0.031 34.000,0.031 Z"/>
<path fill-rule="evenodd"  fill="url(#PSgrad_0)"
 d="M61.571,92.000 L61.571,47.327 L64.408,44.558 C65.195,43.793 65.741,42.825 65.983,41.767 C66.682,38.706 64.707,35.671 61.571,34.988 L61.571,33.000 L95.000,33.000 L95.000,92.000 L61.571,92.000 ZM89.857,47.619 C89.857,47.031 89.376,46.555 88.782,46.555 C85.220,46.551 82.333,43.693 82.330,40.167 C82.330,39.579 81.848,39.103 81.254,39.103 L74.803,39.103 C74.209,39.103 73.727,39.579 73.727,40.167 C73.724,43.693 70.837,46.551 67.275,46.555 C66.681,46.555 66.200,47.031 66.200,47.619 L66.200,76.363 C66.200,76.951 66.681,77.428 67.275,77.428 C70.837,77.431 73.724,80.289 73.727,83.815 C73.727,84.403 74.209,84.880 74.803,84.880 L81.254,84.880 C81.848,84.880 82.330,84.403 82.330,83.815 C82.333,80.289 85.220,77.431 88.782,77.428 C89.376,77.428 89.857,76.951 89.857,76.363 L89.857,47.619 ZM80.247,82.751 L75.811,82.751 C75.314,78.894 72.246,75.858 68.351,75.366 L68.351,48.618 C72.246,48.125 75.313,45.089 75.811,41.232 L80.247,41.232 C80.744,45.089 83.811,48.126 87.706,48.618 L87.706,75.366 C83.811,75.857 80.744,78.894 80.247,82.751 ZM78.028,54.007 C73.871,54.007 70.501,57.343 70.501,61.459 C70.501,65.574 73.871,68.911 78.028,68.911 C82.186,68.911 85.556,65.574 85.556,61.459 C85.550,57.345 82.183,54.012 78.028,54.007 ZM78.028,66.782 C75.059,66.782 72.652,64.399 72.652,61.459 C72.652,58.519 75.059,56.136 78.028,56.136 C80.998,56.136 83.405,58.519 83.405,61.459 C83.405,64.399 80.998,66.782 78.028,66.782 ZM62.588,42.783 L55.517,49.687 C55.149,50.046 55.039,50.586 55.238,51.055 C55.437,51.525 55.908,51.831 56.429,51.830 L59.000,51.830 L59.000,84.468 L43.805,84.468 L34.571,81.087 L34.571,55.244 L43.327,52.391 C43.516,52.330 43.688,52.226 43.828,52.088 L57.979,38.280 C59.244,37.084 61.253,37.084 62.517,38.281 C63.810,39.505 63.842,41.520 62.588,42.783 ZM44.578,70.692 L45.136,73.145 C52.507,71.581 57.752,65.194 57.714,57.830 L57.714,56.851 L55.143,56.851 L55.143,57.830 C55.175,64.016 50.769,69.380 44.578,70.692 ZM23.000,55.595 L32.000,55.595 L32.000,80.702 L23.000,80.702 L23.000,55.595 Z"/>
</svg>