<svg xmlns="http://www.w3.org/2000/svg" width="115" height="91">
    <defs>
        <filter id="a" width="1622" height="5010" x="-67" y="-26" filterUnits="userSpaceOnUse">
            <feOffset dy="2" in="SourceAlpha"/>
            <feGaussianBlur result="blurOut" stdDeviation="2.449"/>
            <feFlood flood-color="#000" result="floodOut"/>
            <feComposite in="floodOut" in2="blurOut" operator="atop"/>
            <feComponentTransfer>
                <feFuncA slope=".5" type="linear"/>
            </feComponentTransfer>
            <feMerge>
                <feMergeNode/>
                <feMergeNode in="SourceGraphic"/>
            </feMerge>
        </filter>
    </defs>
    <g filter="url(#a)">
        <text fill="#6A6A6A" font-family="Montserrat" font-size="28" transform="matrix(.12293 0 0 .12307 46.476 82.73)">
            ALWAYS
        </text>
        <text fill="#6A6A6A" font-family="Montserrat" font-size="28" transform="matrix(.12293 0 0 .12307 77.412 82.73)">
            ONTIME
        </text>
        <path fill="#000002" fill-rule="evenodd" d="M59.335 76.348v1.108h-5.778v-8.245h5.655v1.107h-4.548v2.338h3.688v1.108h-3.688v2.584h4.671zm-12.17 1.108H43.6v-8.245s.615-.124 3.196-.124c2.582 0 4.303 1.723 4.303 4.431s-2.09 3.938-3.934 3.938zm-.276-7.261c-1.862 0-2.182.089-2.182.089v5.942h2.448c1.33 0 2.837-.888 2.837-2.838 0-1.952-1.241-3.193-3.103-3.193zM84.29 69.211v8.245h5.778v-1.108h-4.671v-2.584h3.688v-1.108h-3.688v-2.338h4.548v-1.107H84.29zM96.952 74.01c.328.287 3.688 3.446 3.688 3.446h-1.598l-3.319-3.2H93.51v3.2h-1.106v-8.369h3.811c2.335 0 3.196 1.231 3.196 2.215 0 .985-.492 2.749-2.459 2.708zm-.86-3.815H93.51v2.953h3.074c.737 0 1.721-.492 1.721-1.476 0-.985-1.435-1.477-2.213-1.477zM100.517 69.087h1.475l2.828 3.692 2.704-3.692H109l-3.689 5.169v3.2h-1.106v-3.2l-3.688-5.169zM69.687 69.219h1.063v8.375h-1.063v-8.375zM73.349 69.211h1.23l2.95 6.522 3.073-6.522h1.107l-3.688 8.245h-.861l-3.811-8.245zM61.794 69.087v8.369h6.146v-1.108h-4.917v-7.261h-1.229z"/>
        <path fill="none" fill-rule="evenodd" d="M44.707 70.284v5.942h2.448c1.33 0 2.837-.888 2.837-2.838 0-1.952-1.241-3.193-3.103-3.193s-2.182.089-2.182.089z"/>
        <path fill="#71C168" fill-rule="evenodd" d="M21.226 5.83l.124 20.429-8.974 1.354-.615-22.399 9.465.616z"/>
        <path fill="#000002" fill-rule="evenodd" d="M11.515 18.013L10.409 4.845l13.522-.738 1.229 23.629-12.784.492s9.65-2.215 10.08-2.338c.43-.123.676-.123.492-1.6-.161-1.288-1.018-15.935-.984-16.614.062-1.23 0-1.108-.983-1.23-.984-.124-8.237-1.109-8.237-1.109l-1.229 12.676zM67.08 21.214c-.67 2.07-1.621 4.144-2.807 6.164 14.002 2.717 22.51 10.631 24.074 12.542-2.148-1.162-10.929-8.082-25.632-10.111a41.549 41.549 0 0 1-3.863 4.742c5.451-.818 17.945 1.252 32.814 11.522.496-1.051 5.655-3.138 11.433-3.445-2.643.861-9.466 4.799-11.556 7.137-4.344-3.571-18.402-13.316-32.96-14.922-4.573 4.769-10.389 8.656-16.581 10.615-6.747-5.391-18.1-8.122-29.38-5.538-.89 1.894-3.082 5.142-4.426 5.784 2.213-3.451 3.061-6.395 3.073-7.507 8.083-3.182 23.56-2.341 31.962 2.708 4.215-.838 13.264-5.606 22.743-21.414 7.805 1.237 23.295 2.755 31.839-1.846-8.097 6.519-23.653 5.138-30.733 3.569zm-.246-4.8c.287-.287 1.025-1.067 1.475-1.477 2.705 1.559 12.58 2.994 17.211 3.2-3.237.656-17.416-.862-18.686-1.723zm4.548-7.631c.164 1.354-.819 3.405-1.106 3.693a3.966 3.966 0 0 1-.86 0c-.4-.062-.431.025-.492.492-.082.627-1.534 2.375-2.213 2.707-.601.187-4.518-1.199-5.04-3.815 1.076 1.815 3.903 3.015 4.917 2.708.383-.116 2.028-2.677 1.844-3.446.461.031.892 0 1.229 0 .369-.4.738-2.062.615-2.339-.803.014-12.662 0-12.662 0s12.14-.984 12.539-.984c-.399-2.092-2.243-4.215-4.548-4.8 2.529-.036 5.071 1.015 6.146 4.677 1.99-.162 3.934-.246 3.934-.246l-.615 1.353s-3.278.042-3.688 0zm-10.818 4.431c-.327.247-1.311 1.108-1.72 1.477-6.188-1.928-13.728-2.749-19.792-2.708 9.458-1.695 21.84.985 21.512 1.231zM57 16.537c-.492 5.23-8.79 18.214-11.802 21.168 4.695-6.691 8.421-17.107 8.605-19.199-3.01-2.517-13.153-4.184-25.078-2.831 4.721-1.197 17.457-3.199 28.275.862zM45.444 35.736c-.45.586-.901 1.189-1.106 1.476-5.532-1.887-16.35-3.405-26.922-3.322 6.415-1.71 22.742-.041 28.028 1.846zM27.619 18.26l-.246-4.799-2.582-.862 3.443-.123.369 6.645-3.32.37 2.336-1.231zM43.846 51.242h2.09v10.092c0 2.584 1.168 3.938 3.934 3.938s4.548-1.292 4.548-3.815V51.242h1.967v10.215c0 3.323-1.66 5.661-6.393 5.661-4.732 0-6.146-2.769-6.146-5.784V51.242zM61.562 51.093h2.063V66.75h-2.063V51.093zM68.801 59.119c0-4.862 3.381-8.615 7.991-8.615 4.61 0 7.129 4.308 7.129 4.308l-1.72 1.107s-1.168-3.2-5.409-3.2-5.901 2.892-5.901 6.522c0 3.632 3.073 5.908 6.515 5.908 3.442 0 5.163-3.692 5.163-3.692l1.844 1.477s-2.766 4.307-7.007 4.307-8.605-3.261-8.605-8.122zM87.855 51.119v15.63h2.09v-5.662l1.967-1.968 6.638 7.63h2.951l-7.991-8.984 6.884-6.523h-3.073l-7.253 7.138v-7.261h-2.213z"/>
        <path fill="#000002" fill-rule="evenodd" d="M31.204 73.821c-2.522 1.186-5.372 1.965-8.379 1.979-3.956.018-8.184-1.29-12.294-4.743-2.036-1.712-5.443-6.706-5.532-12.184-.141-8.717 6.248-16.676 18.072-17.353 6.454-.369 17.392 4.246 18.316 16.983.299 4.117-1.727 11.341-10.183 15.318zm-7.888-31.193c-2.268-.166-7.56.184-12.539 5.661-1.58 1.739-3.688 5.968-3.688 10.584 0 4.614 3.004 9.979 5.041 11.691 7.234 6.08 15.112 4.814 18.931 2.708 4.911-2.71 7.721-8.699 7.67-14.709-.103-12.033-12.034-15.69-15.415-15.935z"/>
        <path fill="#000002" fill-rule="evenodd" d="M11.761 53.211s7.939 5.572 9.589 6.03c.842.235 1.562.232 1.843.739.615 1.107 2.644-.123 1.967-.984-.676-.862.062-1.292.861-2.339.799-1.046 1.598-5.23 1.721-6.276-1.475 1.907-3.012 3.876-3.073 5.784-.036 1.109-.308 2.092-.738 2.092s-.676.677-1.106.493c-.431-.185-3.811-2.585-11.064-5.539zM14.199 45.05l.208-.131 1.833 2.916-.208.132-1.833-2.917zM31.788 44.965l-.215-.13-1.852 2.962.215.13 1.852-2.962zM31.308 73.388l-.217.13-1.381-2.332.216-.13 1.382 2.332zM14.588 73.142l.216.13 1.382-2.332-.217-.13-1.381 2.332zM8.881 67.227l.132.216 2.307-1.42-.132-.216-2.307 1.42zM8.443 51.332l.133-.211 2.571 1.633-.133.211-2.571-1.633zM37.196 51.121l-2.571 1.633.133.211 2.571-1.633M37.196 67.732l-2.571-1.633.133-.211 2.571 1.634M6.719 58.406h3.687v.969H6.719v-.969zM35.625 58.406h3.687v.969h-3.687v-.969zM22.812 42.531h1v3.656h-1v-3.656zM17.662 72.656c.172.222.467.517.86.739.393.221.934.123 1.352-.123.418-.247 1.927-.212 2.828-.247 7.54-.287 13.577 7.95 18.808 7.261 2.848-.374 3.934-1.476 3.934-1.476l-.369-.37s-1.77 1.025-3.565.616c-3.237-.738-12.462-7.11-19.792-7.507-1.228-.067-3.032.451-3.565.492-.533.041-.664.394-.491.615z"/>
    </g>
</svg>
