<svg width="250px" id="Isolation_Mode" data-name="Isolation Mode" xmlns="http://www.w3.org/2000/svg" viewBox="0 0 401.09 283.18"><defs><style>.cls-1,.cls-4{fill:#231f20;}.cls-1,.cls-10{opacity:0.1;}.cls-2{fill:#49ce8e;}.cls-3{opacity:0.2;}.cls-5{fill:#f1f2f2;}.cls-6{fill:#e6e7e8;}.cls-7{fill:#fff;}.cls-8{fill:#414042;}.cls-9{fill:#b2875d;}.cls-11{fill:#c49a6c;}.cls-12{font-size:39.78px;fill:#212121;font-family:Montserrat-Black, Montserrat;}</style></defs><title>ic_no-data2</title><path class="cls-1" d="M416.15,295.82c0,7.1-89.79,6.2-200.55,6.2s-200.54.91-200.54-6.2S104.85,283,215.61,283,416.15,288.72,416.15,295.82Z" transform="translate(-15.06 -18.87)"/><circle class="cls-2" cx="198.53" cy="102.07" r="57.66"/><circle class="cls-2" cx="182.21" cy="54.66" r="54.66"/><circle class="cls-2" cx="237.73" cy="51.13" r="30.22"/><circle class="cls-2" cx="161.89" cy="94.29" r="55.78"/><circle class="cls-2" cx="245.54" cy="98.38" r="51.48"/><g class="cls-3"><polygon class="cls-4" points="227.71 36.73 227.74 36.71 158.55 36.71 158.55 144.77 259.21 145.25 246.55 55.68 227.71 36.73"/></g><polygon class="cls-5" points="223.87 35.43 223.9 35.42 154.71 35.42 154.71 143.47 244.49 143.47 244.49 56.05 223.87 35.43"/><rect class="cls-6" x="159.88" y="43.75" width="68.58" height="1.18"/><rect class="cls-6" x="159.88" y="54.37" width="79.7" height="1.18"/><rect class="cls-6" x="159.88" y="65" width="79.7" height="1.18"/><rect class="cls-6" x="159.88" y="75.63" width="79.7" height="1.18"/><rect class="cls-6" x="159.88" y="86.25" width="79.7" height="1.18"/><rect class="cls-6" x="159.88" y="96.88" width="79.7" height="1.18"/><rect class="cls-6" x="159.88" y="107.51" width="79.7" height="1.18"/><rect class="cls-6" x="159.88" y="118.14" width="79.7" height="1.18"/><rect class="cls-6" x="159.88" y="128.76" width="79.7" height="1.18"/><rect class="cls-6" x="159.88" y="139.39" width="79.7" height="1.18"/><polygon class="cls-7" points="244.5 56.06 223.87 56.06 223.87 35.43 244.5 56.06"/><circle class="cls-7" cx="179.76" cy="73.81" r="12.63"/><circle class="cls-8" cx="179.76" cy="73.81" r="9.36"/><circle class="cls-7" cx="176.93" cy="67.35" r="3.19"/><circle class="cls-7" cx="173.73" cy="74.01" r="1.59"/><circle class="cls-7" cx="177.23" cy="78.32" r="2.42"/><path class="cls-7" d="M202.91,94.2c-2.8.44-3.15.79-3.58,3.58-.43-2.8-.79-3.15-3.58-3.58,2.8-.43,3.15-.79,3.58-3.58C199.76,93.42,200.11,93.77,202.91,94.2Z" transform="translate(-15.06 -18.87)"/><circle class="cls-7" cx="220.3" cy="73.81" r="12.63"/><circle class="cls-8" cx="220.3" cy="73.81" r="9.36"/><circle class="cls-7" cx="217.46" cy="67.35" r="3.19"/><circle class="cls-7" cx="214.26" cy="74.01" r="1.59"/><circle class="cls-7" cx="217.77" cy="78.32" r="2.42"/><path class="cls-7" d="M243.44,94.2c-2.8.44-3.15.79-3.58,3.58-.43-2.8-.79-3.15-3.58-3.58,2.8-.43,3.15-.79,3.58-3.58C240.29,93.42,240.65,93.77,243.44,94.2Z" transform="translate(-15.06 -18.87)"/><path class="cls-8" d="M231.62,128.72a1.88,1.88,0,0,1-1.88-1.88,14.65,14.65,0,0,0-29.3,0,1.88,1.88,0,1,1-3.76,0,18.41,18.41,0,1,1,36.83,0A1.88,1.88,0,0,1,231.62,128.72Z" transform="translate(-15.06 -18.87)"/><polygon class="cls-9" points="305.33 276.08 93.71 276.08 93.72 112.99 305.32 112.99 305.33 276.08"/><g class="cls-10"><rect class="cls-7" x="93.82" y="181.23" width="21.5" height="11.79"/></g><g class="cls-10"><rect class="cls-7" x="93.82" y="208.69" width="21.5" height="11.79"/></g><g class="cls-10"><rect class="cls-7" x="93.82" y="236.16" width="21.5" height="11.79"/></g><g class="cls-10"><rect class="cls-7" x="283.8" y="181.23" width="21.5" height="11.79"/></g><g class="cls-10"><rect class="cls-7" x="283.8" y="208.69" width="21.5" height="11.79"/></g><g class="cls-10"><rect class="cls-7" x="283.8" y="236.16" width="21.5" height="11.79"/></g><polygon class="cls-11" points="346.26 156.62 302.73 115.73 305.32 112.99 348.84 153.87 346.26 156.62"/><polygon class="cls-11" points="52.79 156.62 96.32 115.73 93.72 112.99 50.21 153.87 52.79 156.62"/><polygon class="cls-11" points="319.45 167.22 79.59 167.22 93.72 112.99 305.32 112.99 319.45 167.22"/><text class="cls-12" transform="translate(118.32 229.2)">No Data</text></svg>