<svg xmlns="http://www.w3.org/2000/svg" width="75" height="74">
    <defs>
        <linearGradient id="flexbb" x1="46.947%" x2="0%" y1="88.295%" y2="0%">
            <stop offset="0%" stop-color="#66EDAC"/>
            <stop offset="100%" stop-color="#46D18E"/>
        </linearGradient>
    </defs>
    <path fill="url(#flexbb)" fill-rule="evenodd" d="M74.829 30.599c-3.084 5.532-6.146 11.077-9.218 16.616-.102.184-.139.502-.408.473-.241-.025-.278-.324-.363-.524-.67-1.571-1.35-3.138-1.988-4.722-.16-.398-.295-.432-.66-.244-6.846 3.537-11.915 8.656-14.5 16.051-1.307 3.739-1.969 7.589-2.378 11.51-.128 1.222-.125 2.456-.341 3.671-.072.404-.173.569-.612.568-4.07-.016-8.139-.015-12.209-.002-.435.001-.616-.132-.58-.576.028-.335.006-.673.006-1.199.298-4.236.795-8.627 1.815-12.96 1.251-5.31 3.209-10.295 6.287-14.816 3.688-5.416 8.565-9.514 14.22-12.737a59.517 59.517 0 0 1 3.12-1.652c.431-.212.475-.406.285-.838-.689-1.562-1.329-3.144-1.982-4.721-.081-.196-.279-.409-.098-.615.16-.183.372-.005.545.047 6.249 1.919 12.496 3.847 18.746 5.764.565.174.589.41.313.906zm-30.068-13.59c-.005 4.517-.009 9.034.007 13.55.002.541-.117.916-.575 1.279-2.068 1.641-4.002 3.433-5.73 5.433-.312.362-.474.336-.768-.001a43.334 43.334 0 0 0-5.792-5.49c-.407-.321-.518-.656-.517-1.14.015-4.573-.02-9.146.034-13.718.01-.896-.263-1.064-1.08-1.037-1.821.061-3.645.019-5.462.019-.15-.348.126-.501.266-.666 3.84-4.535 7.691-9.061 11.539-13.589.309-.363.606-.736.919-1.095.644-.741.653-.744 1.306.045 4.022 4.856 8.043 9.715 12.057 14.578.151.183.364.349.373.727-1.823 0-3.634-.005-5.445.002-1.261.005-1.131-.18-1.132 1.103zm-25.32 13.209c5.437 2.677 10.304 6.128 14.321 10.711.989 1.128.995 1.114.223 2.372-2.494 4.062-4.253 8.432-5.464 13.032-.068.26-.16.513-.313.998-.682-1.306-1.132-2.45-1.731-3.523-2.557-4.588-6.261-8.006-10.749-10.637-.556-.327-1.146-.597-1.691-.94-.442-.279-.605-.129-.778.301-.63 1.557-1.291 3.102-1.951 4.647-.083.193-.09.508-.358.516-.258.008-.309-.297-.413-.483-2.793-4.992-5.58-9.986-8.368-14.981-.328-.587-.618-1.199-.992-1.756-.383-.571-.239-.807.386-.986 2.336-.669 4.662-1.373 6.992-2.061 3.802-1.125 7.605-2.248 11.407-3.371.337-.1.677-.19 1.198-.336-.775 1.848-1.437 3.532-2.189 5.173-.313.684-.232.978.47 1.324z"/>
</svg>
