<?xml version="1.0" encoding="iso-8859-1"?>
<!-- Generator: Adobe Illustrator 19.0.0, SVG Export Plug-In . SVG Version: 6.00 Build 0)  -->
<svg xmlns="http://www.w3.org/2000/svg" xmlns:xlink="http://www.w3.org/1999/xlink" version="1.1" id="Layer_1" x="0px" y="0px" viewBox="0 0 512 512" style="enable-background:new 0 0 512 512;" xml:space="preserve" width="24px" height="20px">
<path d="M373.333,85.333H266.667C260.771,85.333,256,90.104,256,96s4.771,10.667,10.667,10.667h106.667     c5.896,0,10.667-4.771,10.667-10.667S379.229,85.333,373.333,85.333z" fill="#49ce8e"/>
<path d="M373.333,128H266.667c-5.896,0-10.667,4.771-10.667,10.667c0,5.896,4.771,10.667,10.667,10.667h106.667     c5.896,0,10.667-4.771,10.667-10.667C384,132.771,379.229,128,373.333,128z" fill="#49ce8e"/>
<path d="M330.667,170.667h-64c-5.896,0-10.667,4.771-10.667,10.667c0,5.896,4.771,10.667,10.667,10.667h64     c5.896,0,10.667-4.771,10.667-10.667C341.333,175.438,336.563,170.667,330.667,170.667z" fill="#49ce8e"/>
<path d="M426.667,170.667V53.333c0-2.954-1.201-5.624-3.138-7.555L380.888,3.138C378.957,1.201,376.288,0,373.333,0H256     c-23.531,0-42.667,19.135-42.667,42.667v128H192C192,147.135,172.865,128,149.333,128H128c-23.531,0-42.667,19.135-42.667,42.667     c-23.531,0-42.667,19.135-42.667,42.667v256c0,23.531,19.135,42.667,42.667,42.667h341.333c23.531,0,42.667-19.135,42.667-42.667     v-256C469.333,189.802,450.198,170.667,426.667,170.667z M170.667,192c0,8.927-5.719,16.969-14.24,19.99     c-4.25,1.51-7.094,5.542-7.094,10.052v153.25c0,4.51,2.844,8.542,7.094,10.052c8.521,3.021,14.24,11.063,14.24,19.99v21.333     c0,11.76-9.573,21.333-21.333,21.333H128c-11.76,0-21.333-9.573-21.333-21.333v-21.333c0-8.927,5.719-16.969,14.24-19.99     c4.25-1.51,7.094-5.542,7.094-10.052v-153.25c0-4.51-2.844-8.542-7.094-10.052c-8.521-3.021-14.24-11.063-14.24-19.99v-21.333     c0-11.76,9.573-21.333,21.333-21.333h21.333c11.76,0,21.333,9.573,21.333,21.333V192z M234.667,42.667     c0-11.76,9.573-21.333,21.333-21.333h106.667v16c0,14.708,11.958,26.667,26.667,26.667h16v149.333H234.667V42.667z      M277.333,469.333C265.573,469.333,256,459.76,256,448c0-11.76,9.573-21.333,21.333-21.333c11.76,0,21.333,9.573,21.333,21.333     C298.667,459.76,289.094,469.333,277.333,469.333z M277.333,405.333C265.573,405.333,256,395.76,256,384     c0-11.76,9.573-21.333,21.333-21.333c11.76,0,21.333,9.573,21.333,21.333C298.667,395.76,289.094,405.333,277.333,405.333z      M277.333,341.333C265.573,341.333,256,331.76,256,320s9.573-21.333,21.333-21.333c11.76,0,21.333,9.573,21.333,21.333     S289.094,341.333,277.333,341.333z M341.333,469.333C329.573,469.333,320,459.76,320,448c0-11.76,9.573-21.333,21.333-21.333     c11.76,0,21.333,9.573,21.333,21.333C362.667,459.76,353.094,469.333,341.333,469.333z M341.333,405.333     C329.573,405.333,320,395.76,320,384c0-11.76,9.573-21.333,21.333-21.333c11.76,0,21.333,9.573,21.333,21.333     C362.667,395.76,353.094,405.333,341.333,405.333z M341.333,341.333C329.573,341.333,320,331.76,320,320     s9.573-21.333,21.333-21.333c11.76,0,21.333,9.573,21.333,21.333S353.094,341.333,341.333,341.333z M405.333,469.333     C393.573,469.333,384,459.76,384,448c0-11.76,9.573-21.333,21.333-21.333c11.76,0,21.333,9.573,21.333,21.333     C426.667,459.76,417.094,469.333,405.333,469.333z M405.333,405.333C393.573,405.333,384,395.76,384,384     c0-11.76,9.573-21.333,21.333-21.333c11.76,0,21.333,9.573,21.333,21.333C426.667,395.76,417.094,405.333,405.333,405.333z      M405.333,341.333C393.573,341.333,384,331.76,384,320s9.573-21.333,21.333-21.333c11.76,0,21.333,9.573,21.333,21.333     S417.094,341.333,405.333,341.333z" fill="#49ce8e"/>
</svg>
