<svg xmlns="http://www.w3.org/2000/svg" width="278" height="277">
    <defs>
        <filter id="a" width="278" height="277" x="0" y="0" filterUnits="userSpaceOnUse">
            <feOffset dx="6.151" dy="9.119" in="SourceAlpha"/>
            <feGaussianBlur result="blurOut" stdDeviation="5.745"/>
            <feFlood flood-color="#2EA86D" result="floodOut"/>
            <feComposite in="floodOut" in2="blurOut" operator="atop"/>
            <feComponentTransfer>
                <feFuncA slope=".1" type="linear"/>
            </feComponentTransfer>
            <feMerge>
                <feMergeNode/>
                <feMergeNode in="SourceGraphic"/>
            </feMerge>
        </filter>
        <linearGradient id="b" x1="0%" x2="0%" y1="100%" y2="0%">
            <stop offset="0%" stop-color="#F2FFF9"/>
            <stop offset="100%" stop-color="#FAFDFC"/>
        </linearGradient>
        <linearGradient id="c" x1="46.947%" x2="0%" y1="88.295%" y2="0%">
            <stop offset="0%" stop-color="#66EDAC"/>
            <stop offset="100%" stop-color="#46D18E"/>
        </linearGradient>
        <linearGradient id="d" x1="47.409%" x2="0%" y1="88.048%" y2="0%">
            <stop offset="0%" stop-color="#66EDAC"/>
            <stop offset="100%" stop-color="#46D18E"/>
        </linearGradient>
    </defs>
    <path fill="url(#b)" fill-rule="evenodd" d="M58.011 46.979l114.955-20.974c19.435-3.546 38.07 9.307 41.623 28.709l21.01 114.755c3.553 19.402-9.323 38.005-28.758 41.551L91.885 231.994c-19.435 3.546-38.07-9.307-41.622-28.709L29.252 88.53C25.7 69.128 38.575 50.526 58.011 46.979z" filter="url(#a)"/>
    <path fill="#F2FFF9" fill-rule="evenodd" d="M159.406 80c10.045 0 18.188 8.15 18.188 18.203 0 10.053-8.143 18.203-18.188 18.203-10.044 0-18.187-8.15-18.187-18.203 0-10.053 8.143-18.203 18.187-18.203zM99.703 96.812c7.344 0 13.297 5.954 13.297 13.297 0 7.344-5.953 13.297-13.297 13.297s-13.297-5.953-13.297-13.297c0-7.343 5.953-13.297 13.297-13.297z"/>
    <path fill="url(#c)" fill-rule="evenodd" d="M183.591 169.283c-5.031-1.388-10.113-2.573-15.192-3.771-2.541-.599-5.074-1.229-7.621-1.796-.996-.222-1.494-.701-1.685-1.748-1.107-6.077-2.285-12.141-3.44-18.209-.032-.168-.078-.332-.107-.454.062-.605.24-1.091.656-1.509 4.008-4.022 8.015-8.046 11.993-12.098.702-.716.898-.432 1.183.314 4.852 12.734 9.723 25.461 14.588 38.191.061.158.094.328.161.483.255.588.231.809-.536.597zm-19.494-40.672c-2.653 2.599-5.33 5.175-7.985 7.773-.327.32-.526.525-.971.094-7.634-7.392-15.231-14.819-21.291-23.605-1.559-2.26-2.854-4.642-3.287-7.436-.798-5.153-.166-10.097 2.108-14.777 3.431-7.063 8.899-11.848 16.599-13.856 7.711-2.011 14.827-.466 21.236 4.127 5.016 3.594 8.222 8.466 9.702 14.447.521 2.103.668 4.244.774 5.946-.094 7.03-2.395 12.684-7.031 17.444-3.24 3.327-6.538 6.593-9.854 9.843zm-8.259-41.299c-7.078-.021-12.325 6.041-12.032 11.996-.298 5.916 4.829 11.996 12.032 12.011 6.552.014 11.924-5.392 12.033-11.841.108-6.371-5.17-12.146-12.033-12.166zm-25.455 46.003c.002.692-.263 1.165-.855 1.512-5.099 2.983-10.194 5.976-15.294 8.96-.229.135-.487.22-.941.42.499-2.564.959-4.901 1.406-7.24.815-4.26 1.623-8.52 2.434-12.779 1.196-1.844 2.198-3.701 2.886-5.51a840.967 840.967 0 0 0 9.403 3.827c.697.279 1.006.661.993 1.452-.052 3.119-.044 6.239-.032 9.358zm-37.48 3.681a121.189 121.189 0 0 0 4.167 3.826c-.544.142-.972.509-1.232 1.088-.524 1.163-.033 2.207 1.386 2.83a1519.14 1519.14 0 0 0 9.359 4.066c1.69.728 1.736.726 1.409 2.477-.669 3.59-1.389 7.171-2.084 10.757-.161.83-.625 1.262-1.487 1.469-7.006 1.684-14.004 3.408-21.001 5.127-.894.22-1.777.481-2.877.782 1.014-2.693 1.962-5.246 2.935-7.788 3.143-8.211 6.284-16.423 9.425-24.634zm7.846 4.878c2.139-1.815 6.735-5.88 11.021-10.738-.468 2.414-.941 4.826-1.408 7.24-.453 2.344-.89 4.692-1.358 7.162-2.252-.997-4.431-1.96-6.608-2.928-.549-.244-1.099-.488-1.647-.736zm11.447 8.622c.103-.524.401-.946.87-1.223 5.57-3.29 11.141-6.577 16.713-9.861.141-.083.309-.121.569-.22v29.582c-1.726-.458-3.395-.892-5.059-1.342-4.876-1.319-9.747-2.658-14.63-3.95-.669-.178-.969-.347-.808-1.126.812-3.947 1.562-7.907 2.345-11.86zm35.233-6.491c-4.064-3.004-8.14-5.991-12.211-8.985-.369-.271-.695-.589-.696-1.082-.007-2.661-.004-5.322-.004-8.225 3.991 3.099 7.767 6.029 11.54 8.963 1.981 1.54 3.943 3.105 5.945 4.618.46.348.464.526.068.91a143.41 143.41 0 0 0-3.707 3.734c-.34.355-.56.344-.935.067zm-12.814-4.311c1.422 1.025 2.773 1.987 4.11 2.967 2.883 2.112 5.771 4.217 8.628 6.362.733.551 1.236.504 1.83-.185.799-.927 1.682-1.782 2.685-2.832.687 3.528 1.323 6.766 1.947 10.007.432 2.245.823 4.497 1.287 6.735.102.488.06.603-.449.739-6.431 1.718-12.853 3.472-19.275 5.224-.542.147-.867.205-.865-.577.026-9.322.018-18.644.021-27.967 0-.095.031-.191.081-.473z"/>
    <path fill="url(#d)" fill-rule="evenodd" d="M105.553 132.65c-2.049 1.977-4.118 3.935-6.168 5.91-.253.244-.406.4-.75.072-5.898-5.621-11.767-11.267-16.448-17.948-1.205-1.719-2.205-3.53-2.539-5.654-.617-3.918-.129-7.677 1.628-11.235 2.651-5.371 6.874-9.009 12.823-10.535 5.956-1.529 11.454-.355 16.405 3.137 3.875 2.733 6.352 6.437 7.495 10.985.402 1.6.516 3.227.598 4.521-.072 5.345-1.85 9.644-5.432 13.263a451.475 451.475 0 0 1-7.612 7.484zm-6.38-31.401c-5.468-.016-9.522 4.593-9.295 9.122-.23 4.498 3.73 9.12 9.294 9.132 5.063.011 9.212-4.1 9.296-9.003.084-4.845-3.993-9.235-9.295-9.251z"/>
</svg>
