<svg xmlns="http://www.w3.org/2000/svg" width="278" height="277">
    <defs>
        <filter id="a" width="278" height="277" x="0" y="0" filterUnits="userSpaceOnUse">
            <feOffset dx="6.151" dy="9.119" in="SourceAlpha"/>
            <feGaussianBlur result="blurOut" stdDeviation="5.745"/>
            <feFlood flood-color="#2EA86D" result="floodOut"/>
            <feComposite in="floodOut" in2="blurOut" operator="atop"/>
            <feComponentTransfer>
                <feFuncA slope=".1" type="linear"/>
            </feComponentTransfer>
            <feMerge>
                <feMergeNode/>
                <feMergeNode in="SourceGraphic"/>
            </feMerge>
        </filter>
        <linearGradient id="b" x1="0%" x2="0%" y1="100%" y2="0%">
            <stop offset="0%" stop-color="#F2FFF9"/>
            <stop offset="100%" stop-color="#FAFDFC"/>
        </linearGradient>
        <linearGradient id="c" x1="47.409%" x2="0%" y1="88.048%" y2="0%">
            <stop offset="0%" stop-color="#66EDAC"/>
            <stop offset="100%" stop-color="#46D18E"/>
        </linearGradient>
    </defs>
    <path fill="url(#b)" fill-rule="evenodd" d="M58.128 46.979l114.895-20.974c19.425-3.546 38.05 9.307 41.6 28.709l21 114.755c3.55 19.402-9.319 38.005-28.744 41.551L91.985 231.994c-19.425 3.546-38.05-9.307-41.6-28.709l-21-114.755c-3.55-19.402 9.318-38.004 28.743-41.551z" filter="url(#a)"/>
    <path fill="#F2FFF9" fill-rule="evenodd" d="M85.006 136l-5.6 2.799v33.6l36.4 16.801s31.196-21.12 30.8-21.001c-.397.12 1.4-27.999 1.4-27.999l-2.8-4.2-25.2-4.2-35 4.2z"/>
    <path fill="url(#c)" fill-rule="evenodd" d="M167.491 158.297c-3.092.97-6.266 1.427-9.495 1.595-.706.036-.922-.157-.901-.87a83.957 83.957 0 0 0-.001-5.142c-.022-.705.202-.859.884-.898 10.264-.593 18.512-7.179 21.135-16.837 3.601-13.262-5.494-26.783-19.166-28.468-2.209-.272-4.436-.189-6.657-.185-1.934 0-3.872.065-5.803-.027-1.001-.048-1.161.299-1.146 1.198.053 3.284.009 6.571.029 9.856.005.802-.123 1.509-.893 1.913-.801.42-1.506.154-2.195-.335-9.208-6.546-18.425-13.079-27.631-19.628-1.33-.946-1.305-2.167.039-3.123 9.208-6.547 18.421-13.086 27.631-19.63.65-.461 1.317-.711 2.099-.322.791.393.951 1.071.948 1.876-.013 3.393.017 6.785-.019 10.178-.008.707.202.88.894.886 4.19.036 8.386-.212 12.569.139 10.39.87 18.813 5.463 25.085 13.715 14.543 19.132 5.567 46.901-17.406 54.109zm-48.888-38.33a4714.524 4714.524 0 0 1 29.629 12.948c1.539.678 2.398 2.021 2.413 3.691.052 5.569.02 11.139.02 16.708h-.003c0 5.57.028 11.139-.018 16.708-.014 1.601-.873 2.923-2.297 3.554a3520.548 3520.548 0 0 1-29.83 13.027 5.645 5.645 0 0 1-4.487.007 3520.51 3520.51 0 0 1-29.832-13.022c-1.431-.633-2.301-1.964-2.307-3.549-.04-11.175-.041-22.349 0-33.523.006-1.629.908-2.939 2.392-3.594a4301.76 4301.76 0 0 1 29.63-12.949 5.855 5.855 0 0 1 4.69-.006zm-5.257 27.889c-4.774-1.902-9.565-3.764-14.352-5.636-3.651-1.428-7.305-2.851-11.038-4.308-.039.215-.063.284-.063.354-.003 9.889.004 19.779-.024 29.668-.002.645.29.833.786 1.046 6.46 2.778 12.911 5.573 19.365 8.363 2.711 1.172 5.423 2.342 8.246 3.561v-2.049c0-8.89.012-17.78-.021-26.67-.003-.798.233-1.174.962-1.501 8.533-3.826 17.051-7.688 25.569-11.548.275-.125.637-.148.787-.545-1.051-.53-2.118-1.023-3.136-1.599-.648-.366-1.181-.367-1.882-.064-7.866 3.404-15.554 7.186-23.287 10.871-.676.322-1.223.331-1.912.057z"/>
</svg>
