<svg xmlns="http://www.w3.org/2000/svg" width="279" height="279">
    <defs>
        <filter id="a" width="279" height="279" x="0" y="0" filterUnits="userSpaceOnUse">
            <feOffset dx="6.151" dy="9.119" in="SourceAlpha"/>
            <feGaussianBlur result="blurOut" stdDeviation="5.745"/>
            <feFlood flood-color="#2EA86D" result="floodOut"/>
            <feComposite in="floodOut" in2="blurOut" operator="atop"/>
            <feComponentTransfer>
                <feFuncA slope=".1" type="linear"/>
            </feComponentTransfer>
            <feMerge>
                <feMergeNode/>
                <feMergeNode in="SourceGraphic"/>
            </feMerge>
        </filter>
        <linearGradient id="b" x1="0%" x2="0%" y1="100%" y2="0%">
            <stop offset="0%" stop-color="#F2FFF9"/>
            <stop offset="100%" stop-color="#FAFDFC"/>
        </linearGradient>
        <linearGradient id="c" x1="47.409%" x2="0%" y1="88.048%" y2="0%">
            <stop offset="0%" stop-color="#66EDAC"/>
            <stop offset="100%" stop-color="#46D18E"/>
        </linearGradient>
    </defs>
    <path fill="#F2FFF9" fill-rule="evenodd" d="M58.363 47.556l115.631-21.091c19.55-3.565 38.294 9.359 41.867 28.867l21.135 115.389c3.573 19.509-9.378 38.214-28.928 41.78l-115.631 21.09c-19.55 3.565-38.294-9.359-41.867-28.867L29.436 89.334c-3.573-19.508 9.378-38.213 28.927-41.778z" filter="url(#a)"/>
    <path fill="url(#b)" fill-rule="evenodd" d="M58.363 47.556l115.631-21.091c19.55-3.565 38.294 9.359 41.867 28.867l21.135 115.389c3.573 19.509-9.378 38.214-28.928 41.78l-115.631 21.09c-19.55 3.565-38.294-9.359-41.867-28.867L29.436 89.334c-3.573-19.508 9.378-38.213 28.927-41.778z"/>
    <path fill="url(#c)" fill-rule="evenodd" d="M128.759 127.665a2.2 2.2 0 0 1 .932 1.764 2.2 2.2 0 0 1-.932 1.762c-1.176.805-3.381.489-3.381-1.762 0-2.253 2.205-2.568 3.381-1.764zm32.559 35.536H112.44c-.607 0-1.168-.19-1.633-.511l23.197-9.533V91.402l-23.202-9.537a2.86 2.86 0 0 1 1.638-.515h48.878a2.873 2.873 0 0 1 2.875 2.872v76.107a2.873 2.873 0 0 1-2.875 2.872zm-10.063 9.334c0 1.19-.966 2.155-2.156 2.155h-41.691a2.155 2.155 0 1 1 0-4.309h41.691c1.19 0 2.156.965 2.156 2.154zm-11.501 8.616c0 1.19-.965 2.154-2.156 2.154H95.907a2.155 2.155 0 0 1-2.156-2.154c0-1.189.966-2.153 2.156-2.153h41.691c1.191 0 2.156.964 2.156 2.153z"/>
</svg>
