<svg xmlns="http://www.w3.org/2000/svg" width="21" height="18">
    <path fill="#828286" fill-rule="evenodd" d="M20.421.332a8.425 8.425 0 0 1-2.738 1.104C16.897.55 15.779 0 14.539 0c-2.38 0-4.308 2.035-4.308 4.544 0 .356.038.703.111 1.035C6.762 5.39 3.587 3.58 1.463.83A4.707 4.707 0 0 0 .88 3.115c0 1.577.761 2.968 1.916 3.783a4.145 4.145 0 0 1-1.951-.571v.057c0 2.202 1.485 4.038 3.455 4.457-.361.103-.741.16-1.135.16-.278 0-.547-.03-.811-.083.548 1.805 2.139 3.12 4.023 3.158A8.363 8.363 0 0 1 0 15.958C1.907 17.246 4.17 18 6.604 18c7.924 0 12.257-6.927 12.257-12.932l-.014-.589A8.967 8.967 0 0 0 21 2.129a8.252 8.252 0 0 1-2.474.716A4.535 4.535 0 0 0 20.421.332z"/>
</svg>
