<svg xmlns="http://www.w3.org/2000/svg" width="24.75" height="24.75">
    <path fill="#49CE8E" fill-rule="evenodd" stroke="#49CE8E" d="M12.25 23.249c-6.066 0-11-4.934-11-10.999 0-6.066 4.934-11 11-11 6.065 0 11 4.934 11 11 0 6.065-4.935 10.999-11 10.999zm0-21.266c-5.661 0-10.267 4.606-10.267 10.267S6.589 22.516 12.25 22.516s10.266-4.605 10.266-10.266S17.911 1.983 12.25 1.983zm1.07 16.989a.367.367 0 0 1-.34.244h-.005a.366.366 0 0 1-.342-.234l-1.991-5.147-5.146-1.991a.366.366 0 0 1 .01-.687l11.388-4.041a.367.367 0 0 1 .468.468L13.32 18.972zm-6.637-7.455l4.375 1.693a.362.362 0 0 1 .21.21l1.693 4.375 3.453-9.73-9.731 3.452z"/>
</svg>
