<svg xmlns="http://www.w3.org/2000/svg" width="17" height="17">
    <path fill="#979DAB" fill-rule="evenodd" d="M15.998 16.999H1.034A1.03 1.03 0 0 1-.001 15.97V2.333c0-.584.477-1.105 1.038-1.105h1.187v2.418c0 .782.582 1.4 1.331 1.4h.426c.75 0 1.364-.618 1.364-1.4V1.228h1.626v2.418c0 .782.584 1.4 1.336 1.4h.425a1.404 1.404 0 0 0 1.393-1.4V1.228h1.96v2.418c0 .782.57 1.4 1.32 1.4h.425c.75 0 1.376-.618 1.376-1.4V1.228h.792c.561 0 1.001.521 1.001 1.105V15.97c0 .584-.44 1.029-1.001 1.029zm-.427-9.844a.748.748 0 0 0-.747-.747H2.174a.749.749 0 0 0-.747.747v7.636a.749.749 0 0 0 .747.747h12.65a.748.748 0 0 0 .747-.747V7.155zm-1.926 6.923H3.187a.4.4 0 0 1-.399-.399v-1.693a.4.4 0 0 1 .399-.399h10.458c.221 0 .399.179.399.399v1.693c0 .22-.178.399-.399.399zm0-3.553H7.569a.399.399 0 0 1-.398-.399V8.433c0-.22.178-.398.398-.398h6.076c.221 0 .399.178.399.398v1.693c0 .22-.178.399-.399.399zm.209-6.109h-.425a.786.786 0 0 1-.78-.786V.796c0-.439.358-.796.78-.796h.425c.423 0 .754.357.754.796V3.63c0 .44-.331.786-.754.786zm-5.099 0h-.426a.768.768 0 0 1-.76-.786V.796c0-.439.337-.796.76-.796h.426c.421 0 .773.357.773.796v2.835a.78.78 0 0 1-.773.785zm-4.761 0h-.425a.786.786 0 0 1-.781-.786V.796c0-.439.359-.796.781-.796h.425c.421 0 .753.357.753.796V3.63c0 .44-.332.786-.753.786z"/>
</svg>
