<svg xmlns="http://www.w3.org/2000/svg" width="18" height="25">
    <path fill="#49CE8E" fill-rule="evenodd" d="M17.357 21.296H.642a.633.633 0 0 1-.643-.617v-2.161h18v2.161a.632.632 0 0 1-.642.617zM-.001 12.654c0-3.549 2.315-6.605 5.529-7.87a3.235 3.235 0 0 1-.225-1.235C5.303 1.605 6.975 0 8.999 0c2.025 0 3.697 1.605 3.697 3.549 0 .432-.065.834-.225 1.235 3.214 1.265 5.528 4.321 5.528 7.87v4.63h-18v-4.63zm6.782-8.241a8.949 8.949 0 0 1 2.058-.247h.321c.739 0 1.414.093 2.09.247.096-.278.16-.555.16-.864 0-1.265-1.093-2.315-2.411-2.315s-2.41 1.05-2.41 2.315c0 .309.064.586.192.864zM8.999 25c-1.414 0-2.571-1.111-2.571-2.469h5.143c0 1.358-1.157 2.469-2.572 2.469z"/>
</svg>
