<svg xmlns="http://www.w3.org/2000/svg" width="74" height="74">
    <defs>
        <linearGradient id="blukd" x1="46.947%" x2="0%" y1="88.295%" y2="0%">
            <stop offset="0%" stop-color="#66EDAC"/>
            <stop offset="100%" stop-color="#46D18E"/>
        </linearGradient>
    </defs>
    <path fill="url(#blukd)" fill-rule="evenodd" d="M38.762 73.999V38.788h10.571v15.845a1.763 1.763 0 0 0 3.008 1.243l4.04-4.037 4.04 4.039a1.764 1.764 0 0 0 1.92.382 1.759 1.759 0 0 0 1.087-1.627V38.788H74v35.211H38.762zm21.142-14.084h-7.047v3.52h7.047v-3.52zm-4.769-11.811l-2.278 2.277V38.788h7.047v11.593l-2.278-2.277a1.763 1.763 0 0 0-2.491 0zM19.38.054h10.572v12.325a1.762 1.762 0 0 0 3.007 1.242l4.04-4.037 4.04 4.039a1.763 1.763 0 0 0 3.008-1.244V.054h10.571v35.212H19.38V.054zm14.096 21.128h7.048V17.66h-7.048v3.522zm3.523-15.846c-.467 0-.915.186-1.245.516l-2.278 2.276V-.001h7.048v8.128l-2.279-2.275a1.762 1.762 0 0 0-1.246-.516zM21.142 50.381l-2.278-2.274a1.759 1.759 0 0 0-2.491 0l-2.279 2.276V38.788h7.048v11.593zm.516 5.497a1.762 1.762 0 1 0 3.008-1.245V38.788h10.572v35.211H0V38.788h10.571v15.845a1.762 1.762 0 0 0 3.008 1.243l4.04-4.037 4.039 4.039zm-7.564 7.557h7.048v-3.52h-7.048v3.52z"/>
</svg>
