<svg xmlns="http://www.w3.org/2000/svg" width="84" height="54" viewBox="0 0 84 54">
  <metadata><?xpacket begin="﻿" id="W5M0MpCehiHzreSzNTczkc9d"?>
<x:xmpmeta xmlns:x="adobe:ns:meta/" x:xmptk="Adobe XMP Core 5.6-c138 79.159824, 2016/09/14-01:09:01        ">
   <rdf:RDF xmlns:rdf="http://www.w3.org/1999/02/22-rdf-syntax-ns#">
      <rdf:Description rdf:about=""/>
   </rdf:RDF>
</x:xmpmeta>
                                                                                                    
                                                                                                    
                                                                                                    
                                                                                                    
                                                                                                    
                                                                                                    
                                                                                                    
                                                                                                    
                                                                                                    
                                                                                                    
                                                                                                    
                                                                                                    
                                                                                                    
                                                                                                    
                                                                                                    
                                                                                                    
                                                                                                    
                                                                                                    
                                                                                                    
                                                                                                    
                           
<?xpacket end="w"?></metadata>
<defs>
    <style>
      .cls-1 {
        opacity: 0.6;
      }

      .cls-2 {
        fill: #d7d7d7;
      }

      .cls-3, .cls-4 {
        fill: #c8c8c8;
      }

      .cls-10, .cls-3, .cls-5, .cls-6, .cls-7, .cls-9 {
        fill-rule: evenodd;
      }

      .cls-5 {
        fill: #b7b7b7;
      }

      .cls-6 {
        fill: #4e4e4e;
      }

      .cls-11, .cls-7 {
        fill: #616161;
      }

      .cls-8 {
        fill: #eee;
      }

      .cls-9 {
        fill: #d5d5d5;
      }

      .cls-10 {
        fill: #959595;
      }
    </style>
  </defs>
  <g id="ic_bike_inactive" class="cls-1">
    <g id="Box">
      <rect id="Rectangle_21_copy" data-name="Rectangle 21 copy" class="cls-2" x="4.344" y="6.781" width="17.531" height="15.031" rx="3" ry="3"/>
      <path id="Rectangle_21_copy_4" data-name="Rectangle 21 copy 4" class="cls-3" d="M8.52,21.81a1.759,1.759,0,0,1-1.751-1.766V4.81L2.393,9.667,2.613,22.252l5.032,3.753Z"/>
      <rect id="Rectangle_21_copy_2" data-name="Rectangle 21 copy 2" class="cls-4" x="2.188" y="4.594" width="21.844" height="6.188" rx="3.094" ry="3.094"/>
      <path id="Rectangle_21_copy_3" data-name="Rectangle 21 copy 3" class="cls-5" d="M6.332,10.771A1.758,1.758,0,0,1,4.582,9V6.355A1.758,1.758,0,0,1,6.332,4.589L5.019,0.394,0.2,5.252l0.219,5.961,5.032,3.753Z"/>
    </g>
    <g id="tire1">
      <path id="tire" class="cls-6" d="M14.641,34.406A7.719,7.719,0,1,1,7,42.125,7.68,7.68,0,0,1,14.641,34.406Zm0.016,3.844a3.875,3.875,0,1,1-3.844,3.875A3.859,3.859,0,0,1,14.656,38.25Z"/>
      <path id="tire-2" data-name="tire" class="cls-7" d="M14.656,30.656A11.469,11.469,0,1,1,3.25,42.125,11.438,11.438,0,0,1,14.656,30.656Zm-0.016,5.719a5.751,5.751,0,1,1-5.672,5.75A5.711,5.711,0,0,1,14.641,36.375Z"/>
    </g>
    <g id="tire2">
      <path id="tire-3" data-name="tire" class="cls-6" d="M71.984,34.406a7.719,7.719,0,1,1-7.672,7.719A7.7,7.7,0,0,1,71.984,34.406ZM71.969,38.25a3.875,3.875,0,1,1-3.844,3.875A3.859,3.859,0,0,1,71.969,38.25Z"/>
      <path id="tire-4" data-name="tire" class="cls-7" d="M71.984,30.656A11.469,11.469,0,1,1,60.594,42.125,11.43,11.43,0,0,1,71.984,30.656Zm-0.016,5.719a5.75,5.75,0,1,1-5.687,5.75A5.719,5.719,0,0,1,71.969,36.375Z"/>
    </g>
    <g id="head_light" data-name="head light">
      <circle class="cls-8" cx="63.766" cy="17.953" r="4.703"/>
      <path class="cls-9" d="M64.209,13.2H59.395a1.209,1.209,0,0,0-1.2,1.214V21.7a1.209,1.209,0,0,0,1.2,1.214h4.814a1.209,1.209,0,0,0,1.2-1.214V14.413A1.209,1.209,0,0,0,64.209,13.2Z"/>
    </g>
    <path id="frame_copy_4" data-name="frame copy 4" class="cls-5" d="M37.842,24.238c0,1.1.11,6.182,0.438,7.065a57.928,57.928,0,0,0,2.626,6.4c0.985,1.766.985,2.207,1.97,2.207s4.814,0.221,7,.221,2.407-.221,2.188-0.883-0.547-1.545-.657-1.987c-0.32-1.294.11-.994,0.657-1.1s1.751-.221,1.751-0.221S56.551,25.011,57.1,23.576a13.286,13.286,0,0,0,.218-6.182c-0.438-1.1-4.932-9.782-5.689-10.818-1.414-1.936.65-6.085,3.063-1.325,2.491,4.911,10.723,21.416,10.723,21.416A13.813,13.813,0,0,1,71.1,25.122,18.055,18.055,0,0,1,83.8,30.641c-0.285.353-2.407,2.65-2.407,2.65-3.939-3.753-10.622-6.637-15.974-2.429,0,0,5.032,7.506,6.784,10.156s-1.533,3.311-2.845,1.766-5.908-7.728-5.908-7.728-4.6,8.169-5.252,9.273-1.969,1.546-3.938,1.546H44.625c-1.75,0-2.625-.442-5.251-1.987s-2.625-1.325-5.47-1.325-15.317.662-17.506,0.662c-0.876,0-1.97-.662-1.532-1.545s0.656-1.545,3.063-1.987,10.284-2.428,10.284-2.428a5.859,5.859,0,0,0,.438-3.974C28,31.524,24.9,27.55,6.332,27.55c-2.49,0-2.845-3.974-.219-3.974,14.663,0,26.869-.221,30.854-0.221A0.805,0.805,0,0,1,37.842,24.238Z"/>
    <path id="frame_copy_3" data-name="frame copy 3" class="cls-10" d="M38.061,43L26.682,36.16s-2.118-.194-1.969.221c0.438,1.214,12.8,6.182,13.129,7.065S38.061,43,38.061,43Z"/>
    <path id="frame_copy_2" data-name="frame copy 2" class="cls-10" d="M2.407,30.669a59.889,59.889,0,0,0,7.743,1.6c0.932-.069,12.244,5.951,14.2,5.5a18.766,18.766,0,0,0,3.683-1.231s3.507-6.739-7.916-8.985c-8.591-1.689-13.585-.4-14.328-2.709C3.29,17.082-.559,29.79,2.407,30.669Z"/>
    <path id="frame_copy" data-name="frame copy" class="cls-10" d="M35.217,22.693a72.312,72.312,0,0,0,.656,8.61c0.329,0.883,2.954,4.636,3.939,6.4s0.985,2.207,1.969,2.207,2.845-.221,2.845-0.221l-0.437-7.065L41.344,22.472S35.217,22.252,35.217,22.693Z"/>
    <path id="frame" class="cls-10" d="M35.873,42.563c-2.845,0-17.286.662-19.475,0.662-0.876,0-1.97-.662-1.532-1.545s0.656-1.545,3.063-1.987,9.191-2.428,9.191-2.428h1.75S38.718,42.563,35.873,42.563Z"/>
    <g id="seat">
      <path class="cls-7" d="M34.653,16.952H28.276a5.426,5.426,0,0,0-5.315,5.519h0a1.084,1.084,0,0,0,1.064,1.1H36.779a1.084,1.084,0,0,0,1.063-1.1V20.263A3.256,3.256,0,0,0,34.653,16.952Z"/>
      <path class="cls-6" d="M25.306,22.288c0-3.551,2.655-5.337,6.189-5.337H28.931c-3.533,0-6.189,1.785-6.189,5.337a1.285,1.285,0,0,0,1.282,1.288h2.562A1.285,1.285,0,0,1,25.306,22.288Z"/>
    </g>
    <rect id="Rounded_Rectangle_1" data-name="Rounded Rectangle 1" class="cls-11" x="43.094" y="2.344" width="10.938" height="3.563" rx="1.766" ry="1.766"/>
  </g>
</svg>
