<?xml version="1.0" encoding="utf-8"?>
<!-- Generator: Adobe Illustrator 21.0.0, SVG Export Plug-In . SVG Version: 6.00 Build 0)  -->
<svg version="1.1" id="Layer_1" xmlns="http://www.w3.org/2000/svg" xmlns:xlink="http://www.w3.org/1999/xlink" x="0px" y="0px"
	 viewBox="0 0 512 512" style="enable-background:new 0 0 512 512;" xml:space="preserve">
<style type="text/css">
	.st0{fill:#E5E5E5;}
	.st1{fill:#625D6B;}
	.st2{fill:#CAC9CD;}
	.st3{fill:#DCDBDE;}
	.st4{fill:#49CE8E;}
	.st5{fill:#3BA871;}
	.st6{fill:#EDEDEE;}
	.st7{fill:#504B5A;}
	.st8{fill:#FFFFFF;stroke:#FFFFFF;stroke-miterlimit:10;}
</style>
<path class="st0" d="M423.6,95.5h-59.4c-1.3,0-2.3,1-2.3,2.3v49.9c0,1.3,1,2.3,2.3,2.3h84.2c1.3,0,2.3-1,2.3-2.3l-23.8-49.9
	C426.3,96.5,424.8,95.5,423.6,95.5z"/>
<path class="st1" d="M414.9,295.7h-88.3v26.5H35.3c-4.9,0-8.8,4-8.8,8.8v17.7c0,4.9,4,8.8,8.8,8.8h379.6L414.9,295.7L414.9,295.7z"
	/>
<path class="st2" d="M335.4,110.3H8.8c-4.9,0-8.8,4-8.8,8.8v194.2c0,4.9,4,8.8,8.8,8.8h326.6c4.9,0,8.8-4,8.8-8.8V119.2
	C344.3,114.3,340.3,110.3,335.4,110.3z"/>
<g>
	<path class="st3" d="M317.8,304.6H26.5c-4.9,0-8.8-4-8.8-8.8l0,0c0-4.9,4-8.8,8.8-8.8h291.3c4.9,0,8.8,4,8.8,8.8l0,0
		C326.6,300.6,322.7,304.6,317.8,304.6z"/>
	<path class="st3" d="M317.8,145.7H26.5c-4.9,0-8.8-4-8.8-8.8l0,0c0-4.9,4-8.8,8.8-8.8h291.3c4.9,0,8.8,4,8.8,8.8l0,0
		C326.6,141.7,322.7,145.7,317.8,145.7z"/>
	<path class="st2" d="M415.5,109.9h-42.4c-0.7,0-1.3-1-1.3-2.3l0,0c0-1.3,0.6-2.3,1.3-2.3h42.4c0.7,0,1.3,1,1.3,2.3l0,0
		C416.8,108.8,416.2,109.9,415.5,109.9z"/>
	<path class="st2" d="M430.8,141.4h-57.3c-1,0-1.7-1-1.7-2.3l0,0c0-1.3,0.8-2.3,1.7-2.3h57.3c1,0,1.7,1,1.7,2.3l0,0
		C432.6,140.4,431.8,141.4,430.8,141.4z"/>
</g>
<path class="st4" d="M446.9,154.5h-76.1c-4.9,0-8.8,4-8.8,8.8v132.4c0,4.9,4,8.8,8.8,8.8h39.7v44.1h92.7v-63.1
	c0-10.8-2-21.6-5.9-31.7l-33.9-88.1C460.8,159,454.2,154.5,446.9,154.5z"/>
<rect x="410.5" y="304.6" class="st5" width="92.7" height="44.1"/>
<circle class="st6" cx="101.5" cy="353.1" r="40.5"/>
<path class="st7" d="M101.5,401.7c-26.8,0-48.6-21.8-48.6-48.6s21.8-48.6,48.6-48.6s48.6,21.8,48.6,48.6S128.3,401.7,101.5,401.7z
	 M101.5,322.2c-17,0-30.9,13.9-30.9,30.9S84.5,384,101.5,384s30.9-13.9,30.9-30.9S118.6,322.2,101.5,322.2z"/>
<circle class="st3" cx="101.5" cy="353.1" r="17.7"/>
<circle class="st6" cx="410.5" cy="353.1" r="40.5"/>
<path class="st7" d="M410.5,401.7c-26.8,0-48.6-21.8-48.6-48.6s21.8-48.6,48.6-48.6s48.6,21.8,48.6,48.6
	C459,379.9,437.3,401.7,410.5,401.7z M410.5,322.2c-17,0-30.9,13.9-30.9,30.9s13.9,30.9,30.9,30.9s30.9-13.9,30.9-30.9
	S427.5,322.2,410.5,322.2z"/>
<circle class="st3" cx="410.5" cy="353.1" r="17.7"/>
<path class="st1" d="M494.3,357.5h8.8c4.9,0,8.8-4,8.8-8.8V331c0-4.9-4-8.8-8.8-8.8h-8.8c-4.9,0-8.8,4-8.8,8.8v17.7
	C485.5,353.6,489.5,357.5,494.3,357.5z"/>
<path class="st6" d="M494.3,286.9h8.8v26.5h-8.8c-4.9,0-8.8-4-8.8-8.8v-8.8C485.5,290.8,489.5,286.9,494.3,286.9z"/>
<path class="st1" d="M444.2,172.1h-55.8c-4.9,0-8.8,4-8.8,8.8v44.1c0,4.9,4,8.8,8.8,8.8h82.4c4.5,0,7.6-4.5,6-8.7l-16.1-41.8
	C458.1,176.6,451.5,172.1,444.2,172.1z"/>
<g>
	<path class="st8" d="M226.7,241.1l-12.2-7l10.3-6.1c1.6-0.8,2.2-3,1.2-4.6c-1-1.7-3-2-4.6-1.1l-13.7,8L186,217.6l21.7-12.5l13.7,8
		c0.4,0.3,1,0.5,1.6,0.5c1.2,0,2.2-0.5,3-1.6c0.9-1.7,0.4-3.8-1.2-4.6l-10.3-6.1l12.2-7c1.6-0.9,2.1-3,1.2-4.6
		c-0.9-1.6-3-2.2-4.6-1.2l-12.2,7.1l-0.2-12.2c0-1.9-1.5-3.4-3.4-3.4c-1.9,0-3.4,1.6-3.4,3.4l0.1,16.1l-21.6,12.5v-25.4l13.6-7.8
		c1.6-0.9,2.3-3,1.3-4.6c-1-1.7-2.9-2.2-4.6-1.2l-10.4,5.9v-13.9c0-1.9-1.5-3.4-3.4-3.4c-1.9,0-3.4,1.5-3.4,3.4v14l-10.7-6
		c-1.7-0.9-3.6-0.4-4.5,1.2c-1,1.7-0.4,3.7,1.3,4.6l14,7.9v25.2L153.8,199l0.1-15.8c0.2-1.8-1.4-3.4-3.3-3.4h-0.1
		c-1.8,0-3.3,1.5-3.4,3.4l-0.1,11.9l-11.9-6.8c-1.7-1-3.7-0.4-4.6,1.2c-0.9,1.7-0.4,3.7,1.2,4.7l12,7l-10.5,6.3
		c-1.6,0.8-2.2,3-1.2,4.6c0.6,1.1,1.6,1.6,2.9,1.6c0.7,0,1.2-0.2,1.8-0.5l13.7-8.1l22,12.6l-22,12.8l-13.7-8.1
		c-1.6-1-3.8-0.5-4.6,1.1c-0.9,1.7-0.4,3.7,1.2,4.6l10.5,6.2l-12,7c-1.7,1-2.2,3-1.2,4.7c0.7,1.1,1.6,1.7,2.9,1.7
		c0.3,0,0.9-0.2,1.7-0.5l11.9-6.8l0.1,11.9c0,1.9,1.6,3.3,3.4,3.3h0.1c1.9,0,3.3-1.6,3.3-3.5l-0.1-15.7l22.1-12.6v25l-14,7.9
		c-1.7,0.9-2.3,3-1.3,4.6c0.7,1.2,1.6,1.7,2.9,1.7c0.6,0,1.2-0.1,1.6-0.4l10.7-6.1v14.2c0,1.9,1.5,3.4,3.4,3.4
		c1.9,0,3.4-1.5,3.4-3.4v-14l10.4,5.9c0.5,0.3,1,0.4,1.6,0.4c1.3,0,2.3-0.5,3-1.7c0.9-1.6,0.3-3.7-1.3-4.6l-13.6-7.6v-25.4
		l21.6,12.5l-0.1,16c0,1.9,1.5,3.5,3.4,3.5s3.3-1.5,3.4-3.3l0.2-12.3l12.2,7.2c0.5,0.3,1.1,0.4,1.8,0.4c1.3,0,2.2-0.5,2.9-1.6
		C228.9,244.2,228.2,242.1,226.7,241.1z"/>
</g>
</svg>
