<?xml version="1.0" encoding="utf-8"?>
<!-- Generator: Adobe Illustrator 21.0.0, SVG Export Plug-In . SVG Version: 6.00 Build 0)  -->
<svg version="1.1" id="Layer_1" xmlns="http://www.w3.org/2000/svg" xmlns:xlink="http://www.w3.org/1999/xlink" x="0px" y="0px"
	 viewBox="0 0 512 512" style="enable-background:new 0 0 512 512;" xml:space="preserve">
<style type="text/css">
	.st0{display:none;}
	.st1{display:inline;fill:#625D6B;}
	.st2{display:inline;fill:#DCDBDE;}
	.st3{display:inline;}
	.st4{fill:#CAC9CD;}
	.st5{display:inline;fill:#49CE8E;}
	.st6{display:inline;fill:#3BA871;}
	.st7{display:inline;fill:#EDEDEE;}
	.st8{display:inline;fill:#504B5A;}
	.st9{fill:#49CE8E;}
	.st10{fill:#3BA871;}
	.st11{fill:#5F6168;}
	.st12{fill:#D1D3D4;}
	.st13{fill:#010101;}
	.st14{fill:#FFFFFF;}
	.st15{fill:#FEAB01;}
	.st16{display:none;fill:#FFFFFF;}
	.st17{fill:#4B4E54;}
	.st18{display:none;fill:#D6E3DD;}
	.st19{fill:#EEEEEE;}
</style>
<g class="st0">
	<path class="st1" d="M414.9,295.7h-88.3v26.5H35.3c-4.9,0-8.8,4-8.8,8.8v17.7c0,4.9,4,8.8,8.8,8.8h379.6L414.9,295.7L414.9,295.7z"
		/>
	<path class="st2" d="M335.4,110.3H8.8c-4.9,0-8.8,4-8.8,8.8v194.2c0,4.9,4,8.8,8.8,8.8h326.6c4.9,0,8.8-4,8.8-8.8V119.2
		C344.3,114.3,340.3,110.3,335.4,110.3z"/>
	<g class="st3">
		<path class="st4" d="M317.8,304.6H26.5c-4.9,0-8.8-4-8.8-8.8l0,0c0-4.9,4-8.8,8.8-8.8h291.3c4.9,0,8.8,4,8.8,8.8l0,0
			C326.6,300.6,322.7,304.6,317.8,304.6z"/>
		<path class="st4" d="M317.8,145.7H26.5c-4.9,0-8.8-4-8.8-8.8l0,0c0-4.9,4-8.8,8.8-8.8h291.3c4.9,0,8.8,4,8.8,8.8l0,0
			C326.6,141.7,322.7,145.7,317.8,145.7z"/>
	</g>
	<path class="st5" d="M446.9,154.5h-76.1c-4.9,0-8.8,4-8.8,8.8v132.4c0,4.9,4,8.8,8.8,8.8h39.7v44.1h92.7v-63.1
		c0-10.8-2-21.6-5.9-31.7l-33.9-88.1C460.8,159,454.2,154.5,446.9,154.5z"/>
	<rect x="410.5" y="304.6" class="st6" width="92.7" height="44.1"/>
	<circle class="st7" cx="101.5" cy="353.1" r="40.5"/>
	<path class="st8" d="M101.5,401.7c-26.8,0-48.6-21.8-48.6-48.6s21.8-48.6,48.6-48.6s48.6,21.8,48.6,48.6S128.3,401.7,101.5,401.7z
		 M101.5,322.2c-17,0-30.9,13.9-30.9,30.9S84.5,384,101.5,384s30.9-13.9,30.9-30.9S118.6,322.2,101.5,322.2z"/>
	<circle class="st2" cx="101.5" cy="353.1" r="17.7"/>
	<circle class="st7" cx="410.5" cy="353.1" r="40.5"/>
	<path class="st8" d="M410.5,401.7c-26.8,0-48.6-21.8-48.6-48.6s21.8-48.6,48.6-48.6s48.6,21.8,48.6,48.6
		C459,379.9,437.3,401.7,410.5,401.7z M410.5,322.2c-17,0-30.9,13.9-30.9,30.9s13.9,30.9,30.9,30.9s30.9-13.9,30.9-30.9
		S427.5,322.2,410.5,322.2z"/>
	<circle class="st2" cx="410.5" cy="353.1" r="17.7"/>
	<path class="st1" d="M494.3,357.5h8.8c4.9,0,8.8-4,8.8-8.8V331c0-4.9-4-8.8-8.8-8.8h-8.8c-4.9,0-8.8,4-8.8,8.8v17.7
		C485.5,353.6,489.5,357.5,494.3,357.5z"/>
	<path class="st7" d="M494.3,286.9h8.8v26.5h-8.8c-4.9,0-8.8-4-8.8-8.8v-8.8C485.5,290.8,489.5,286.9,494.3,286.9z"/>
	<path class="st1" d="M444.2,172.1h-55.8c-4.9,0-8.8,4-8.8,8.8v44.1c0,4.9,4,8.8,8.8,8.8h82.4c4.5,0,7.6-4.5,6-8.7l-16.1-41.8
		C458.1,176.6,451.5,172.1,444.2,172.1z"/>
</g>
<g>
	<g>
		<g>
			<path class="st9" d="M462.3,205.1l-41.7-11.3l-74-52c-8.2-5.8-17.9-8.8-27.9-8.8H56c-15.1,0-27.9,11.3-29.7,26.4L16,265.4
				l-0.2,30.3c-2.5,0-4.5,2-4.5,4.5v14.2c0,2.5,2,4.5,4.5,4.5h41.9v-0.5H58c-0.2-1.9-0.4-3.7-0.4-5.6c0-24.2,19.7-43.9,43.9-43.9
				s48.9,19.7,48.9,43.9c0,0,0,0,0,0.1c0,3.1,2.4,5.6,5.5,5.6h211.3c3,0,5.4-2.5,5.4-5.5c0,0,0-0.1,0-0.1
				c0-24.2,23.7-43.9,47.9-43.9c24.2,0,43.9,19.7,43.9,43.9c0,0,0,0.1,0,0.1c0,3,2.4,5.5,5.4,5.5h15.6v-63.2
				C485.5,241.1,476,208.8,462.3,205.1z"/>
			<g>
				<path class="st10" d="M346.1,307.8h-57.1c-5.8,0-10.6-4.3-11.3-10.1c-2.4-21.8-8.2-93-8.5-98.4l-3.1-43.9
					c-0.3-3.8,1.1-7.6,3.6-10.3c2.6-2.8,6.2-4.4,10-4.4l44.1,0.2c6.7,0,13.4,2.4,18.6,6.6l57.1,43.1c4.2,3.1,5.8,8.4,4.1,13.3
					c-0.5,1.4-1.1,5.2-1.9,10.1c-1.9,11.3-4.7,48.3-8.8,55.8l-0.1,0.2l-30.3,30.9C358.2,305.3,352.2,307.8,346.1,307.8z
					 M279.7,142.2c-3.4,0-6.7,1.4-9,3.9c-2.3,2.5-3.5,5.9-3.3,9.3l3.1,43.9c0.4,5.3,6.1,76.5,8.5,98.3c0.6,5,4.8,8.8,9.9,8.8h57.1
					c5.8,0,11.4-2.4,15.4-6.5l30.2-30.8c4-7.3,6.8-44.1,8.6-55.3c0.8-5.1,1.4-8.8,1.9-10.3c1.5-4.4,0-9-3.6-11.7l-57.1-43.1
					c-5-4-11.4-6.3-17.8-6.3L279.7,142.2z"/>
			</g>
			<path class="st11" d="M272,155.1l3.1,43.9c0.3,4,3.6,7.1,7.7,7.1h109.5c5.6,0,8.1-7.2,3.5-10.6l-57.2-43.1
				c-4.2-3.4-9.5-5.3-15-5.3l-44-0.2C275.2,146.8,271.7,150.6,272,155.1z"/>
			<g>
				<path class="st10" d="M57.3,143.2c-3.4,0-6.9,1.2-9,3.9c-3.4,4.4-6.1,52.1-6.1,52.1c0.5,6.4,5.9,11.4,12.3,11.4H261
					c5.2,0,9.3-4.4,8.9-9.6l-3-40.9c-0.7-10-9.1-17.8-19.2-17.8L57.3,143.2z"/>
			</g>
			<path class="st12" d="M15.8,318.9h41.9v-0.5H58c-0.2-1.9-0.4-3.7-0.4-5.6c0-8.1,2.2-15.7,6.1-22.3H15.8l0,5.2
				c-2.5,0-4.5,2-4.5,4.5v14.2C11.3,316.9,13.3,318.9,15.8,318.9z"/>
		</g>
		<g>
			<path class="st10" d="M143.4,290.5c3.9,6.5,7.1,14.1,7.1,22.3c0,0,0,0,0,0.1c0,3.1,2.4,5.6,5.5,5.6h211.3c3,0,5.4-2.5,5.4-5.5
				c0,0,0-0.1,0-0.1c0-24.2,23.7-43.9,47.9-43.9c24.2,0,43.9,19.7,43.9,43.9c0,0,0,0.1,0,0.1c0,3,2.4,5.5,5.4,5.5h15.6v-56
				c-16.1-1.1-42.9-2.6-69.3-2.6c-41.5,0-48.6,30.7-48.6,30.7H201.9H143.4z"/>
		</g>
		<path class="st13" d="M469.8,318.4h23.6c3.8,0,6.9-3.1,6.9-6.9v-30.5c0-3.8-3.1-6.9-6.9-6.9h-52.3c13.9,7.4,23.4,22,23.4,38.8
			c0,0,0,0,0,0.1C464.4,315.9,466.8,318.4,469.8,318.4z"/>
		<path class="st13" d="M15.8,295.3l0,0.4c-2.5,0-4.5,2-4.5,4.5v14.2c0,2.5,2,4.5,4.5,4.5h41.9v-0.5H58c-0.2-1.9-0.4-3.7-0.4-5.6
			c0-6.2,1.3-12.1,3.6-17.5H15.8z"/>
		<g>
			<path class="st14" d="M400.1,212.9H389c-1.4,0-2.5-1.3-2.2-2.7l2.8-14.5c0.2-1.1,1.1-1.8,2.2-1.8h8.4c7,0,12.6,4.2,12.6,9.5l0,0
				C412.7,208.6,407.1,212.9,400.1,212.9z"/>
			<path class="st12" d="M400.1,207.2H389c-0.6,0-1.1-0.2-1.5-0.6l-0.7,3.6c-0.3,1.4,0.8,2.7,2.2,2.7h11.1c7,0,12.6-4.2,12.6-9.5
				l0,0c0-1-0.2-1.9-0.6-2.8C410.5,204.4,405.7,207.2,400.1,207.2z"/>
		</g>
		<polygon class="st15" points="16,265.7 15.8,288.3 22.1,284.5 22.1,265.7 		"/>
		<polygon class="st16" points="57.7,218.3 262.2,218.3 264.3,235.3 		"/>
		<g id="XMLID_585_">
			<g>
				
					<ellipse id="XMLID_610_" transform="matrix(4.645317e-02 -0.9989 0.9989 4.645317e-02 -218.0051 406.3697)" class="st11" cx="103.9" cy="317.4" rx="39.3" ry="40.6"/>
				
					<ellipse id="XMLID_607_" transform="matrix(4.645275e-02 -0.9989 0.9989 4.645275e-02 -219.1646 406.6989)" class="st17" cx="103.4" cy="318.1" rx="24.1" ry="24.4"/>
				
					<ellipse id="XMLID_604_" transform="matrix(4.645256e-02 -0.9989 0.9989 4.645256e-02 -218.1726 406.4613)" class="st14" cx="103.8" cy="317.5" rx="16.9" ry="16.8"/>
			</g>
			<path id="XMLID_603_" class="st18" d="M665.1,298.2l0.8-7.7l-15.8-0.8c-0.1-0.3-0.2-0.6-0.3-0.8l12.4-9.2l-4.8-6L645.7,284
				c-0.3-0.2-0.5-0.3-0.8-0.4l2.5-15.6l-7.7-0.8l-1.1,15.5c-0.4,0.1-0.8,0.2-1.2,0.3l-9.7-12.5l-5.8,5l10.3,11.2
				c-0.5,0.7-0.9,1.4-1.2,2.2l-15.6-1.4l-0.2,7.7l15.6,0c0.1,0.2,0.2,0.5,0.3,0.7l-12.3,10.2l5.2,5.7l11.2-11.1
				c0.4,0.2,0.9,0.5,1.3,0.6l-3.3,15.4l7.6,1.4l2.1-16.3c0.3-0.1,0.6-0.2,0.9-0.3l-0.2,0.1l9.1,13.2l6.2-4.6L648.8,298
				c0.4-0.6,0.8-1.2,1.1-1.9L665.1,298.2z"/>
		</g>
		<path id="XMLID_310_" class="st19" d="M474.1,219.9l-0.5-0.5c-0.2-0.2-0.4-0.4-0.6-0.6c-21.2-20.8-52.2-18.6-52.2-18.6
			s-0.3,10,9,17.4c2.6,2.1,6.1,4.1,10.5,5.5c0.8,0.3,1.6,0.5,2.5,0.7c0,0,11.9,1.9,26.4,5.2l0.2-0.1
			C469.4,229,484.5,225,474.1,219.9z"/>
	</g>
	<path class="st11" d="M49.8,192.7l2.5-34.3c0.5-6.5,5.9-11.6,12.4-11.6H106c5.9,0,10.7,4.9,10.7,10.8l-0.5,36.9
		c-0.1,4.4-2.8,8.3-6.9,9.8c-2.6,1-5.4,1.5-8.2,1.5l-38.8,0.2C55,206.1,49.3,200,49.8,192.7z"/>
	<path class="st11" d="M125.4,196.2l0.2-39.5c0-5.4,4.4-9.8,9.9-9.8h114.4c5.5,0,9.9,4.5,9.9,10l-0.5,39.3c-0.1,5.4-4.5,9.7-9.8,9.7
		l-114,0.2C129.8,206.1,125.4,201.7,125.4,196.2z"/>
	<g>
		
			<ellipse id="XMLID_21_" transform="matrix(4.645317e-02 -0.9989 0.9989 4.645317e-02 84.831 718.9694)" class="st11" cx="419" cy="315.1" rx="39.3" ry="40.6"/>
		
			<ellipse id="XMLID_17_" transform="matrix(4.645275e-02 -0.9989 0.9989 4.645275e-02 83.6716 719.2986)" class="st17" cx="418.6" cy="315.8" rx="24.1" ry="24.4"/>
		
			<ellipse id="XMLID_1_" transform="matrix(4.645256e-02 -0.9989 0.9989 4.645256e-02 84.6637 719.061)" class="st14" cx="419" cy="315.2" rx="16.9" ry="16.8"/>
	</g>
</g>
</svg>
